<?xml version="1.0" standalone="no"?>
<!DOCTYPE svg PUBLIC "-//W3C//DTD SVG 20010904//EN"
 "http://www.w3.org/TR/2001/REC-SVG-20010904/DTD/svg10.dtd">
<svg version="1.0" xmlns="http://www.w3.org/2000/svg"
 width="512.000000pt" height="512.000000pt" viewBox="0 0 512.000000 512.000000"
 preserveAspectRatio="xMidYMid meet">

<g transform="translate(0.000000,512.000000) scale(0.100000,-0.100000)"
fill="#FFFFFF" stroke="none">
<path d="M3125 5050 c-709 -127 -1242 -676 -1356 -1395 -16 -103 -16 -367 0
-470 59 -371 217 -684 476 -940 340 -336 789 -503 1277 -473 655 39 1240 489
1448 1115 139 421 115 845 -71 1241 -217 463 -647 802 -1157 913 -145 31 -466
36 -617 9z m555 -115 c624 -118 1107 -591 1235 -1209 52 -257 38 -515 -42
-770 -168 -535 -606 -927 -1167 -1048 -139 -30 -423 -32 -571 -4 -558 104
-1008 493 -1186 1026 -62 186 -82 330 -76 535 8 254 48 417 158 640 225 458
679 780 1190 845 103 12 357 4 459 -15z"/>
<path d="M3930 4469 c-116 -23 -221 -106 -273 -217 -29 -62 -32 -75 -32 -168
l0 -102 -381 -171 c-210 -94 -385 -171 -390 -171 -5 0 -20 15 -33 33 -120 162
-373 189 -539 57 -137 -108 -181 -300 -104 -463 111 -238 424 -295 612 -112
l45 44 400 -209 c325 -170 399 -213 396 -227 -2 -10 -4 -61 -5 -113 -1 -84 2
-102 26 -153 38 -80 115 -158 191 -193 55 -26 73 -29 162 -29 93 0 105 2 167
33 83 41 158 119 189 200 18 44 23 78 24 147 0 81 -3 97 -31 156 -44 91 -93
142 -178 184 -153 75 -318 50 -439 -66 l-48 -47 -397 208 c-367 192 -397 209
-394 231 2 13 5 67 6 119 l2 94 384 172 384 172 52 -53 c194 -197 510 -144
628 105 28 58 31 75 31 160 0 87 -3 101 -32 160 -57 117 -160 197 -282 220
-61 11 -78 11 -141 -1z m185 -133 c57 -26 117 -87 141 -143 21 -49 21 -157 1
-204 -8 -20 -32 -56 -54 -79 -163 -182 -467 -68 -467 175 0 80 18 129 68 183
83 90 206 117 311 68z m-1480 -660 c57 -26 117 -88 140 -143 51 -121 -9 -281
-130 -346 -57 -31 -183 -31 -240 0 -87 46 -155 153 -155 243 0 43 26 119 56
161 69 100 216 138 329 85z m1494 -780 c166 -86 194 -323 53 -446 -103 -91
-252 -91 -355 0 -108 96 -124 248 -38 367 72 99 230 135 340 79z"/>
<path d="M1826 2261 l-111 -108 -40 18 c-57 26 -147 25 -207 -4 -32 -15 -232
-192 -632 -560 -322 -296 -606 -562 -632 -590 -81 -90 -131 -214 -141 -343
-20 -277 170 -540 442 -609 76 -19 214 -19 290 0 82 21 178 71 235 122 101 91
1126 1215 1149 1261 32 60 35 158 7 215 l-19 38 112 113 c61 62 111 119 111
127 0 28 -31 59 -58 59 -21 0 -51 -24 -134 -107 l-108 -108 -145 145 -145 145
105 105 c81 81 105 111 105 132 0 27 -31 58 -59 58 -8 0 -64 -49 -125 -109z"/>
</g>
</svg>
