<?xml version="1.0" standalone="no"?>
<!DOCTYPE svg PUBLIC "-//W3C//DTD SVG 20010904//EN"
 "http://www.w3.org/TR/2001/REC-SVG-20010904/DTD/svg10.dtd">
<svg version="1.0" xmlns="http://www.w3.org/2000/svg"
 width="512.000000pt" height="512.000000pt" viewBox="0 0 512.000000 512.000000"
 preserveAspectRatio="xMidYMid meet">

<g transform="translate(0.000000,512.000000) scale(0.100000,-0.100000)"
fill="#000000" stroke="none">
<path d="M2405 5114 c-466 -50 -905 -302 -1165 -672 -24 -34 -46 -62 -49 -62
-4 0 -35 17 -70 38 l-65 37 0 110 c-1 102 -3 115 -32 175 -37 79 -107 150
-183 188 -50 24 -67 27 -161 27 -93 0 -112 -3 -162 -27 -190 -89 -271 -294
-197 -494 31 -82 130 -182 214 -214 128 -49 280 -24 390 65 l52 43 71 -42 70
-41 -23 -45 c-71 -140 -138 -378 -152 -540 l-8 -85 -82 -3 -82 -3 -31 67 c-57
127 -141 198 -273 230 -169 42 -353 -50 -431 -216 -27 -58 -31 -75 -31 -155 1
-70 6 -103 24 -147 31 -81 106 -160 189 -200 62 -31 74 -33 167 -33 89 0 107
3 162 29 40 18 81 48 113 82 50 52 100 141 100 177 0 16 9 17 88 15 l87 -3 7
-79 c24 -259 114 -516 256 -731 76 -116 105 -151 208 -257 71 -74 84 -92 84
-120 -1 -28 -52 -102 -309 -447 -170 -227 -311 -421 -314 -431 -8 -29 19 -79
47 -86 50 -12 69 3 164 130 l93 124 184 -106 c102 -59 185 -111 185 -115 0
-10 -383 -902 -411 -959 -123 -244 -469 -248 -600 -6 -32 59 -34 69 -34 153 0
119 10 139 172 358 87 116 133 187 133 203 0 48 -58 86 -105 67 -20 -7 -276
-345 -305 -403 -49 -97 -63 -235 -35 -345 67 -254 337 -416 588 -350 116 30
221 103 288 202 16 22 184 403 375 845 190 441 352 817 360 834 24 50 54 58
132 35 98 -29 215 -51 304 -58 l78 -6 0 -86 0 -87 -46 -13 c-99 -29 -200 -131
-239 -241 -17 -48 -22 -155 -10 -211 12 -53 52 -126 96 -174 177 -192 494
-150 616 82 37 70 46 106 45 193 -2 155 -105 297 -254 350 l-53 18 -3 85 -3
84 86 7 c163 12 368 67 528 141 43 20 87 45 98 56 42 42 10 119 -50 119 -15 0
-66 -17 -112 -39 -332 -153 -683 -175 -1079 -66 -33 10 -71 13 -95 9 -48 -7
-116 -45 -143 -79 -11 -13 -73 -148 -138 -299 l-119 -275 -30 17 c-16 10 -92
53 -168 97 -75 43 -137 82 -137 87 0 5 76 111 169 236 92 125 176 241 185 259
20 40 21 132 2 178 -8 19 -62 84 -120 145 -252 264 -386 561 -416 925 -26 323
56 643 233 913 259 394 693 641 1177 669 494 28 1006 -232 1285 -652 392 -589
322 -1345 -172 -1856 -91 -93 -103 -111 -103 -141 0 -44 25 -68 71 -68 31 0
46 11 123 87 49 49 118 127 154 176 36 48 69 87 74 87 5 0 37 -16 71 -37 l62
-36 0 -111 c0 -100 3 -117 27 -168 37 -80 107 -152 187 -191 60 -29 74 -32
161 -32 91 0 100 2 172 38 88 43 136 92 179 181 91 190 7 417 -189 509 -60 28
-77 32 -157 32 -110 -1 -182 -26 -252 -89 l-47 -43 -68 39 c-37 22 -68 43 -68
46 0 4 20 54 44 112 182 431 176 913 -18 1325 l-33 70 70 42 70 41 52 -43 c61
-49 135 -80 218 -90 56 -7 57 -8 68 -49 6 -22 26 -97 45 -166 19 -69 34 -129
34 -135 0 -5 -19 -21 -41 -35 -53 -32 -101 -91 -136 -166 -24 -51 -28 -71 -28
-154 0 -82 4 -103 27 -153 38 -80 115 -158 191 -193 55 -26 73 -29 162 -29 93
0 105 2 167 33 83 40 158 119 189 200 18 44 23 77 24 147 0 80 -4 97 -31 155
-58 122 -163 200 -304 223 l-73 12 -43 160 c-24 88 -44 167 -44 176 0 9 12 22
26 30 14 7 50 39 79 71 177 191 115 496 -124 606 -79 36 -203 42 -284 14 -115
-41 -203 -131 -242 -250 -13 -40 -16 -77 -14 -145 l4 -91 -65 -38 c-36 -21
-67 -38 -71 -38 -3 0 -24 27 -48 60 -232 330 -607 569 -1021 651 -102 20 -358
33 -455 23z m-1637 -320 c209 -87 179 -394 -43 -444 -146 -33 -279 77 -279
230 0 99 50 177 139 216 41 18 138 17 183 -2z m3804 -19 c23 -17 56 -53 73
-80 26 -41 30 -58 30 -114 -1 -156 -132 -263 -282 -231 -176 38 -244 258 -120
389 51 54 100 72 184 69 61 -3 78 -8 115 -33z m-4084 -1074 c139 -71 174 -245
73 -362 -45 -54 -100 -79 -174 -79 -98 0 -172 46 -213 135 -40 85 -28 174 34
245 73 86 184 110 280 61z m4352 -1 c49 -25 104 -89 118 -139 35 -115 -24
-241 -135 -288 -46 -19 -140 -16 -189 6 -109 50 -165 197 -115 306 56 123 202
176 321 115z m-292 -1084 c74 -38 132 -133 132 -217 0 -78 -57 -166 -133 -204
-195 -97 -406 106 -316 305 31 70 73 106 149 131 37 12 132 4 168 -15z m-1893
-1085 c84 -38 137 -120 137 -210 0 -139 -96 -235 -232 -235 -252 0 -324 340
-95 445 52 24 138 24 190 0z"/>
<path d="M2395 4799 c-165 -22 -372 -90 -412 -135 -38 -42 -27 -92 25 -113 26
-11 38 -9 90 13 446 188 955 87 1290 -254 43 -43 91 -98 109 -122 l32 -45
-340 -197 -339 -198 -35 31 c-87 76 -212 112 -317 91 -73 -14 -143 -47 -193
-91 l-35 -31 -339 198 -339 198 31 44 c18 25 67 81 110 126 69 72 77 85 75
115 -4 45 -44 77 -85 67 -41 -10 -181 -159 -258 -275 -154 -232 -219 -447
-218 -731 0 -234 39 -394 146 -604 176 -344 511 -601 889 -682 237 -50 533
-28 749 56 418 164 732 535 818 968 79 395 -18 781 -275 1100 -184 229 -471
400 -766 457 -102 20 -318 27 -413 14z m-540 -982 c290 -170 330 -196 330
-218 l0 -24 -394 -3 -394 -2 6 64 c3 35 16 102 27 147 23 88 77 229 88 229 4
0 156 -87 337 -193z m1783 121 c95 -228 114 -492 53 -728 -24 -93 -80 -242
-90 -238 -4 2 -157 90 -340 197 l-332 194 7 41 c6 37 7 105 1 190 -2 29 8 36
328 222 182 106 333 193 337 194 3 0 20 -33 36 -72z m-1012 -223 c191 -57 228
-315 59 -420 -43 -27 -57 -30 -125 -30 -68 0 -82 3 -125 30 -167 104 -133 361
55 420 59 18 76 18 136 0z m-427 -354 c11 -32 37 -80 57 -106 41 -53 140 -121
190 -131 l34 -6 0 -395 0 -396 -64 7 c-253 26 -509 156 -700 356 -171 179
-294 438 -313 657 l-6 73 390 0 390 0 22 -59z m989 -322 c180 -105 329 -193
331 -195 22 -21 -200 -250 -314 -324 -43 -28 -111 -66 -150 -84 -114 -55 -304
-106 -392 -106 l-33 0 0 390 c0 304 3 391 13 394 60 17 110 42 152 75 28 22
53 40 58 40 4 1 155 -85 335 -190z"/>
</g>
</svg>
