<?xml version="1.0" encoding="UTF-8"?>
<!DOCTYPE svg PUBLIC "-//W3C//DTD SVG 1.1//EN" "http://www.w3.org/Graphics/SVG/1.1/DTD/svg11.dtd">
<svg xmlns="http://www.w3.org/2000/svg" version="1.1" width="512px" height="512px" style="shape-rendering:geometricPrecision; text-rendering:geometricPrecision; image-rendering:optimizeQuality; fill-rule:evenodd; clip-rule:evenodd" xmlns:xlink="http://www.w3.org/1999/xlink">
<g><path style="opacity:0.963" fill="#FFFFFF" d="M 511.5,140.5 C 511.5,144.5 511.5,148.5 511.5,152.5C 509.744,156.093 507.077,158.926 503.5,161C 464.154,182.791 422.487,189.291 378.5,180.5C 391.653,242.863 375.653,296.363 330.5,341C 286.735,379.025 236.401,391.859 179.5,379.5C 188.291,423.487 181.791,465.154 160,504.5C 158.306,507.358 156.139,509.691 153.5,511.5C 148.167,511.5 142.833,511.5 137.5,511.5C 130.527,505.53 128.694,498.196 132,489.5C 137.101,482.507 140.434,474.84 142,466.5C 109.833,434.333 77.6667,402.167 45.5,370C 44.1667,369.333 42.8333,369.333 41.5,370C 33.9413,373.228 26.608,376.894 19.5,381C 10.7852,382.805 4.11851,379.972 -0.5,372.5C -0.5,368.5 -0.5,364.5 -0.5,360.5C 1.25648,356.907 3.92315,354.074 7.5,352C 46.1084,330.049 87.1084,323.882 130.5,333.5C 131.167,333.167 131.833,332.833 132.5,332.5C 118.651,263.537 138.651,206.703 192.5,162C 234.49,131.702 280.823,122.202 331.5,133.5C 322.34,88.1256 329.507,45.459 353,5.5C 358.269,0.754758 364.436,-0.745242 371.5,1C 379.108,5.38604 381.942,11.886 380,20.5C 376.318,27.8644 372.651,35.1978 369,42.5C 368.333,43.8333 368.333,45.1667 369,46.5C 401.167,78.6667 433.333,110.833 465.5,143C 473.84,141.434 481.507,138.101 488.5,133C 498.31,129.251 505.977,131.751 511.5,140.5 Z M 359.5,82.5 C 382.965,105.465 406.299,128.632 429.5,152C 408.671,153.93 388.337,151.264 368.5,144C 360.959,124.043 357.959,103.543 359.5,82.5 Z M 283.5,159.5 C 304.034,159.034 324.034,162.034 343.5,168.5C 348.944,185.053 351.944,202.053 352.5,219.5C 352.589,223.285 352.089,226.952 351,230.5C 327.833,207.333 304.667,184.167 281.5,161C 282.416,160.722 283.082,160.222 283.5,159.5 Z M 243.5,168.5 C 277.083,200.582 310.249,233.248 343,266.5C 339.094,279.141 332.928,290.641 324.5,301C 323.833,301.667 323.167,301.667 322.5,301C 285.333,263.833 248.167,226.667 211,189.5C 210.383,188.551 210.549,187.718 211.5,187C 221.444,179.53 232.111,173.363 243.5,168.5 Z M 186.5,211.5 C 224.75,248.249 262.583,285.582 300,323.5C 300.617,324.449 300.451,325.282 299.5,326C 289.222,334.137 277.889,340.137 265.5,344C 233,311.5 200.5,279 168,246.5C 172.042,233.751 178.209,222.085 186.5,211.5 Z M 159.5,282.5 C 182.965,305.465 206.299,328.632 229.5,352C 225.784,353.093 221.95,353.593 218,353.5C 200.728,352.879 183.895,349.879 167.5,344.5C 162.056,327.947 159.056,310.947 158.5,293.5C 158.576,289.783 158.909,286.117 159.5,282.5 Z M 90.5,359.5 C 108.566,359.947 126.066,363.28 143,369.5C 150.248,389.237 152.915,409.57 151,430.5C 127.833,407.333 104.667,384.167 81.5,361C 84.6946,360.819 87.6946,360.319 90.5,359.5 Z"/></g>
</svg>
