<svg version="1.1" viewBox="0.0 0.0 762.6220472440945 245.0734908136483" fill="none" stroke="none" stroke-linecap="square" stroke-miterlimit="10" xmlns:xlink="http://www.w3.org/1999/xlink" xmlns="http://www.w3.org/2000/svg"><clipPath id="p.0"><path d="m0 0l762.6221 0l0 245.07349l-762.6221 0l0 -245.07349z" clip-rule="nonzero"/></clipPath><g clip-path="url(#p.0)"><path fill="#000000" fill-opacity="0.0" d="m0 0l762.6221 0l0 245.07349l-762.6221 0z" fill-rule="evenodd"/><path fill="#000000" fill-opacity="0.0" d="m186.41339 74.25853l0 0c0 -20.3867 31.008682 -36.913383 69.25984 -36.913383l0 0c38.251144 0 69.25984 16.526684 69.25984 36.913383l0 0c0 20.386703 -31.008698 36.913383 -69.25984 36.913383l0 0c-38.25116 0 -69.25984 -16.52668 -69.25984 -36.913383z" fill-rule="evenodd"/><path stroke="#000000" stroke-width="1.0" stroke-linejoin="round" stroke-linecap="butt" d="m186.41339 74.25853l0 0c0 -20.3867 31.008682 -36.913383 69.25984 -36.913383l0 0c38.251144 0 69.25984 16.526684 69.25984 36.913383l0 0c0 20.386703 -31.008698 36.913383 -69.25984 36.913383l0 0c-38.25116 0 -69.25984 -16.52668 -69.25984 -36.913383z" fill-rule="evenodd"/><path fill="#000000" d="m235.54774 69.07291q1.953125 0 3.0625 0.9375q1.125 0.9375 1.125 2.59375q0 1.640625 -1.125 2.578125q-1.109375 0.921875 -3.0625 0.921875l-2.765625 0l0 3.234375l-1.078125 0l0 -10.265625l3.84375 0zm-0.03125 6.078125q1.515625 0 2.328125 -0.671875q0.8125 -0.671875 0.8125 -1.875q0 -1.25 -0.8125 -1.921875q-0.8125 -0.671875 -2.328125 -0.671875l-2.734375 0l0 5.140625l2.734375 0zm13.004425 0.65625l-6.4375 0q0.078125 1.203125 0.90625 1.953125q0.84375 0.734375 2.125 0.734375q0.71875 0 1.3125 -0.25q0.609375 -0.265625 1.046875 -0.765625l0.578125 0.671875q-0.5 0.609375 -1.28125 0.9375q-0.765625 0.328125 -1.6875 0.328125q-1.1875 0 -2.109375 -0.5q-0.90625 -0.515625 -1.421875 -1.40625q-0.515625 -0.890625 -0.515625 -2.03125q0 -1.125 0.484375 -2.015625q0.5 -0.890625 1.359375 -1.390625q0.859375 -0.5 1.921875 -0.5q1.078125 0 1.921875 0.5q0.84375 0.5 1.328125 1.390625q0.484375 0.875 0.484375 2.015625l-0.015625 0.328125zm-3.71875 -3.34375q-1.109375 0 -1.875 0.71875q-0.75 0.703125 -0.84375 1.84375l5.46875 0q-0.109375 -1.140625 -0.875 -1.84375q-0.75 -0.71875 -1.875 -0.71875zm6.8680267 0.671875q0.359375 -0.765625 1.078125 -1.15625q0.734375 -0.40625 1.796875 -0.40625l0 1.015625l-0.25 -0.015625q-1.203125 0 -1.90625 0.75q-0.6875 0.734375 -0.6875 2.09375l0 3.921875l-1.03125 0l0 -7.703125l1.0 0l0 1.5zm6.881012 6.28125q-0.9375 0 -1.796875 -0.265625q-0.859375 -0.28125 -1.34375 -0.6875l0.46875 -0.828125q0.484375 0.390625 1.21875 0.640625q0.734375 0.234375 1.53125 0.234375q1.046875 0 1.546875 -0.328125q0.515625 -0.34375 0.515625 -0.9375q0 -0.421875 -0.28125 -0.65625q-0.28125 -0.25 -0.703125 -0.375q-0.421875 -0.125 -1.125 -0.25q-0.9375 -0.171875 -1.515625 -0.34375q-0.5625 -0.1875 -0.96875 -0.625q-0.40625 -0.453125 -0.40625 -1.21875q0 -0.96875 0.796875 -1.578125q0.8125 -0.625 2.25 -0.625q0.75 0 1.5 0.203125q0.75 0.1875 1.234375 0.515625l-0.453125 0.828125q-0.953125 -0.65625 -2.28125 -0.65625q-0.984375 0 -1.5 0.359375q-0.5 0.34375 -0.5 0.921875q0 0.4375 0.28125 0.703125q0.28125 0.265625 0.703125 0.390625q0.4375 0.125 1.1875 0.25q0.921875 0.171875 1.46875 0.359375q0.5625 0.171875 0.953125 0.59375q0.40625 0.421875 0.40625 1.171875q0 1.015625 -0.84375 1.609375q-0.84375 0.59375 -2.34375 0.59375zm8.260681 0q-1.125 0 -2.015625 -0.5q-0.890625 -0.515625 -1.40625 -1.40625q-0.515625 -0.890625 -0.515625 -2.03125q0 -1.125 0.515625 -2.015625q0.515625 -0.890625 1.40625 -1.390625q0.890625 -0.5 2.015625 -0.5q1.109375 0 2.0 0.5q0.890625 0.5 1.390625 1.390625q0.515625 0.890625 0.515625 2.015625q0 1.140625 -0.515625 2.03125q-0.5 0.890625 -1.390625 1.40625q-0.890625 0.5 -2.0 0.5zm0 -0.921875q0.8125 0 1.46875 -0.375q0.65625 -0.375 1.015625 -1.0625q0.359375 -0.6875 0.359375 -1.578125q0 -0.875 -0.359375 -1.5625q-0.359375 -0.6875 -1.015625 -1.0625q-0.65625 -0.375 -1.46875 -0.375q-0.828125 0 -1.484375 0.375q-0.640625 0.375 -1.015625 1.0625q-0.375 0.6875 -0.375 1.5625q0 0.890625 0.375 1.578125q0.375 0.6875 1.015625 1.0625q0.65625 0.375 1.484375 0.375zm9.955139 -6.921875q1.453125 0 2.3125 0.84375q0.859375 0.84375 0.859375 2.453125l0 4.46875l-1.046875 0l0 -4.375q0 -1.1875 -0.609375 -1.8125q-0.59375 -0.640625 -1.703125 -0.640625q-1.25 0 -1.984375 0.75q-0.71875 0.734375 -0.71875 2.03125l0 4.046875l-1.03125 0l0 -7.703125l1.0 0l0 1.421875q0.421875 -0.703125 1.171875 -1.09375q0.75 -0.390625 1.75 -0.390625z" fill-rule="nonzero"/><path fill="#000000" fill-opacity="0.0" d="m186.41339 205.92848l0 0c0 -20.386703 31.008682 -36.913376 69.25984 -36.913376l0 0c38.251144 0 69.25984 16.526672 69.25984 36.913376l0 0c0 20.386703 -31.008698 36.91339 -69.25984 36.91339l0 0c-38.25116 0 -69.25984 -16.526688 -69.25984 -36.91339z" fill-rule="evenodd"/><path stroke="#000000" stroke-width="1.0" stroke-linejoin="round" stroke-linecap="butt" d="m186.41339 205.92848l0 0c0 -20.386703 31.008682 -36.913376 69.25984 -36.913376l0 0c38.251144 0 69.25984 16.526672 69.25984 36.913376l0 0c0 20.386703 -31.008698 36.91339 -69.25984 36.91339l0 0c-38.25116 0 -69.25984 -16.526688 -69.25984 -36.91339z" fill-rule="evenodd"/><path fill="#000000" d="m225.06229 211.10223q-1.515625 0 -2.75 -0.671875q-1.21875 -0.6875 -1.921875 -1.875q-0.6875 -1.203125 -0.6875 -2.671875q0 -1.484375 0.6875 -2.671875q0.703125 -1.203125 1.921875 -1.875q1.234375 -0.671875 2.765625 -0.671875q1.140625 0 2.109375 0.390625q0.96875 0.375 1.640625 1.09375l-0.6875 0.703125q-1.203125 -1.21875 -3.03125 -1.21875q-1.21875 0 -2.21875 0.5625q-1.0 0.546875 -1.5625 1.515625q-0.5625 0.96875 -0.5625 2.171875q0 1.203125 0.5625 2.171875q0.5625 0.953125 1.5625 1.515625q1.0 0.5625 2.21875 0.5625q1.84375 0 3.03125 -1.234375l0.6875 0.6875q-0.671875 0.734375 -1.65625 1.125q-0.96875 0.390625 -2.109375 0.390625zm8.684937 -0.015625q-1.125 0 -2.015625 -0.5q-0.890625 -0.515625 -1.40625 -1.40625q-0.515625 -0.890625 -0.515625 -2.03125q0 -1.125 0.515625 -2.015625q0.515625 -0.890625 1.40625 -1.390625q0.890625 -0.5 2.015625 -0.5q1.109375 0 2.0 0.5q0.890625 0.5 1.390625 1.390625q0.515625 0.890625 0.515625 2.015625q0 1.140625 -0.515625 2.03125q-0.5 0.890625 -1.390625 1.40625q-0.890625 0.5 -2.0 0.5zm0 -0.921875q0.8125 0 1.46875 -0.375q0.65625 -0.375 1.015625 -1.0625q0.359375 -0.6875 0.359375 -1.578125q0 -0.875 -0.359375 -1.5625q-0.359375 -0.6875 -1.015625 -1.0625q-0.65625 -0.375 -1.46875 -0.375q-0.828125 0 -1.484375 0.375q-0.640625 0.375 -1.015625 1.0625q-0.375 0.6875 -0.375 1.5625q0 0.890625 0.375 1.578125q0.375 0.6875 1.015625 1.0625q0.65625 0.375 1.484375 0.375zm6.033249 -10.03125l1.03125 0l0 10.875l-1.03125 0l0 -10.875zm3.9425507 0l1.03125 0l0 10.875l-1.03125 0l0 -10.875zm10.645676 7.34375l-6.4375 0q0.078125 1.203125 0.90625 1.953125q0.84375 0.734375 2.125 0.734375q0.71875 0 1.3125 -0.25q0.609375 -0.265625 1.046875 -0.765625l0.578125 0.671875q-0.5 0.609375 -1.28125 0.9375q-0.765625 0.328125 -1.6875 0.328125q-1.1875 0 -2.109375 -0.5q-0.90625 -0.515625 -1.421875 -1.40625q-0.515625 -0.890625 -0.515625 -2.03125q0 -1.125 0.484375 -2.015625q0.5 -0.890625 1.359375 -1.390625q0.859375 -0.5 1.921875 -0.5q1.078125 0 1.921875 0.5q0.84375 0.5 1.328125 1.390625q0.484375 0.875 0.484375 2.015625l-0.015625 0.328125zm-3.71875 -3.34375q-1.109375 0 -1.875 0.71875q-0.75 0.703125 -0.84375 1.84375l5.46875 0q-0.109375 -1.140625 -0.875 -1.84375q-0.75 -0.71875 -1.875 -0.71875zm9.055527 6.953125q-1.140625 0 -2.046875 -0.5q-0.890625 -0.5 -1.40625 -1.390625q-0.515625 -0.90625 -0.515625 -2.046875q0 -1.125 0.515625 -2.015625q0.515625 -0.890625 1.40625 -1.390625q0.90625 -0.5 2.046875 -0.5q1.0 0 1.78125 0.390625q0.78125 0.390625 1.25 1.125l-0.78125 0.53125q-0.390625 -0.5625 -0.984375 -0.84375q-0.578125 -0.296875 -1.265625 -0.296875q-0.828125 0 -1.5 0.375q-0.65625 0.375 -1.03125 1.0625q-0.375 0.6875 -0.375 1.5625q0 0.90625 0.375 1.59375q0.375 0.671875 1.03125 1.046875q0.671875 0.375 1.5 0.375q0.6875 0 1.265625 -0.28125q0.59375 -0.28125 0.984375 -0.859375l0.78125 0.53125q-0.46875 0.75 -1.265625 1.140625q-0.78125 0.390625 -1.765625 0.390625zm9.214508 -0.546875q-0.296875 0.265625 -0.734375 0.40625q-0.421875 0.140625 -0.890625 0.140625q-1.09375 0 -1.6875 -0.578125q-0.578125 -0.59375 -0.578125 -1.671875l0 -4.65625l-1.375 0l0 -0.875l1.375 0l0 -1.6875l1.046875 0l0 1.6875l2.34375 0l0 0.875l-2.34375 0l0 4.59375q0 0.703125 0.34375 1.0625q0.34375 0.34375 0.984375 0.34375q0.328125 0 0.625 -0.09375q0.296875 -0.109375 0.515625 -0.296875l0.375 0.75zm1.8879395 -7.234375l1.03125 0l0 7.703125l-1.03125 0l0 -7.703125zm0.53125 -1.6875q-0.328125 0 -0.546875 -0.21875q-0.21875 -0.21875 -0.21875 -0.53125q0 -0.296875 0.21875 -0.515625q0.21875 -0.21875 0.546875 -0.21875q0.3125 0 0.53125 0.21875q0.21875 0.203125 0.21875 0.5q0 0.328125 -0.21875 0.546875q-0.21875 0.21875 -0.53125 0.21875zm6.567566 9.46875q-1.125 0 -2.015625 -0.5q-0.890625 -0.515625 -1.40625 -1.40625q-0.515625 -0.890625 -0.515625 -2.03125q0 -1.125 0.515625 -2.015625q0.515625 -0.890625 1.40625 -1.390625q0.890625 -0.5 2.015625 -0.5q1.109375 0 2.0 0.5q0.890625 0.5 1.390625 1.390625q0.515625 0.890625 0.515625 2.015625q0 1.140625 -0.515625 2.03125q-0.5 0.890625 -1.390625 1.40625q-0.890625 0.5 -2.0 0.5zm0 -0.921875q0.8125 0 1.46875 -0.375q0.65625 -0.375 1.015625 -1.0625q0.359375 -0.6875 0.359375 -1.578125q0 -0.875 -0.359375 -1.5625q-0.359375 -0.6875 -1.015625 -1.0625q-0.65625 -0.375 -1.46875 -0.375q-0.828125 0 -1.484375 0.375q-0.640625 0.375 -1.015625 1.0625q-0.375 0.6875 -0.375 1.5625q0 0.890625 0.375 1.578125q0.375 0.6875 1.015625 1.0625q0.65625 0.375 1.484375 0.375zm9.955109 -6.921875q1.453125 0 2.3125 0.84375q0.859375 0.84375 0.859375 2.453125l0 4.46875l-1.046875 0l0 -4.375q0 -1.1875 -0.609375 -1.8125q-0.59375 -0.640625 -1.703125 -0.640625q-1.25 0 -1.984375 0.75q-0.71875 0.734375 -0.71875 2.03125l0 4.046875l-1.03125 0l0 -7.703125l1.0 0l0 1.421875q0.421875 -0.703125 1.171875 -1.09375q0.75 -0.390625 1.75 -0.390625z" fill-rule="nonzero"/><path fill="#000000" fill-opacity="0.0" d="m324.93307 74.25853l135.49606 -47.27559" fill-rule="evenodd"/><path stroke="#000000" stroke-width="1.0" stroke-linejoin="round" stroke-linecap="butt" d="m324.93307 74.25853l129.831 -45.299004" fill-rule="evenodd"/><path fill="#000000" stroke="#000000" stroke-width="1.0" stroke-linecap="butt" d="m455.3082 30.51906l3.740631 -3.0545235l-4.8289185 -0.06454086z" fill-rule="evenodd"/><path fill="#000000" fill-opacity="0.0" d="m460.4134 2.2322834l102.74017 0l0 49.480312l-102.74017 0z" fill-rule="evenodd"/><path stroke="#000000" stroke-width="1.0" stroke-linejoin="round" stroke-linecap="butt" d="m460.4134 2.2322834l102.74017 0l0 49.480312l-102.74017 0z" fill-rule="evenodd"/><path fill="#000000" d="m490.62616 15.286817q1.078125 0 1.953125 0.5q0.890625 0.48437405 1.390625 1.374999q0.5 0.890625 0.5 2.03125q0 1.15625 -0.5 2.0625q-0.5 0.890625 -1.375 1.390625q-0.875 0.484375 -1.96875 0.484375q-0.9375 0 -1.703125 -0.390625q-0.75 -0.390625 -1.234375 -1.140625l0 4.296875l-1.03125 0l0 -10.546874l1.0 0l0 1.515624q0.46875 -0.765625 1.234375 -1.171874q0.765625 -0.40625 1.734375 -0.40625zm-0.078125 6.921874q0.8125 0 1.46875 -0.375q0.65625 -0.375 1.03125 -1.0625q0.375 -0.6875 0.375 -1.578125q0 -0.875 -0.375 -1.546875q-0.375 -0.6875 -1.03125 -1.0625q-0.65625 -0.390625 -1.46875 -0.390625q-0.8125 0 -1.46875 0.390625q-0.65625 0.375 -1.03125 1.0625q-0.359375 0.671875 -0.359375 1.546875q0 0.890625 0.359375 1.578125q0.375 0.6875 1.03125 1.0625q0.65625 0.375 1.46875 0.375zm8.68985 -6.921874q1.515625 0 2.3125 0.74999905q0.8125 0.75 0.8125 2.234375l0 4.78125l-1.0 0l0 -1.203125q-0.34375 0.609375 -1.03125 0.953125q-0.671875 0.328125 -1.609375 0.328125q-1.296875 0 -2.0625 -0.609375q-0.75 -0.625 -0.75 -1.640625q0 -0.984375 0.703125 -1.578125q0.71875 -0.609375 2.265625 -0.609375l2.453125 0l0 -0.46875q0 -0.984375 -0.5625 -1.5q-0.5625 -0.53125 -1.625 -0.53125q-0.734375 0 -1.40625 0.25q-0.671875 0.234375 -1.15625 0.65625l-0.46875 -0.78125q0.578125 -0.48437405 1.390625 -0.74999905q0.828125 -0.28125 1.734375 -0.28125zm-0.359375 7.015624q0.875 0 1.5 -0.390625q0.640625 -0.40625 0.953125 -1.171875l0 -1.265625l-2.421875 0q-1.984375 0 -1.984375 1.375q0 0.671875 0.515625 1.0625q0.515625 0.390625 1.4375 0.390625zm10.381592 0.28125q-0.296875 0.265625 -0.734375 0.40625q-0.421875 0.140625 -0.890625 0.140625q-1.09375 0 -1.6875 -0.578125q-0.578125 -0.59375 -0.578125 -1.671875l0 -4.65625l-1.375 0l0 -0.87499905l1.375 0l0 -1.6875l1.046875 0l0 1.6875l2.34375 0l0 0.87499905l-2.34375 0l0 4.59375q0 0.703125 0.34375 1.0625q0.34375 0.34375 0.984375 0.34375q0.328125 0 0.625 -0.09375q0.296875 -0.109375 0.515625 -0.296875l0.375 0.75zm1.8879395 -7.234374l1.0312805 0l0 7.703124l-1.0312805 0l0 -7.703124zm0.53125 -1.6875q-0.328125 0 -0.546875 -0.21875q-0.21875 -0.21875 -0.21875 -0.53125q0 -0.296875 0.21875 -0.515625q0.21875 -0.21875 0.546875 -0.21875q0.3125 0 0.5312805 0.21875q0.21875 0.203125 0.21875 0.5q0 0.328125 -0.21875 0.546875q-0.21878052 0.21875 -0.5312805 0.21875zm10.11441 5.859374l-6.4375 0q0.078125 1.203125 0.90625 1.953125q0.84375 0.734375 2.125 0.734375q0.71875 0 1.3125 -0.25q0.609375 -0.265625 1.046875 -0.765625l0.578125 0.671875q-0.5 0.609375 -1.28125 0.9375q-0.765625 0.328125 -1.6875 0.328125q-1.1875 0 -2.109375 -0.5q-0.90625 -0.515625 -1.421875 -1.40625q-0.515625 -0.890625 -0.515625 -2.03125q0 -1.125 0.484375 -2.015625q0.5 -0.890625 1.359375 -1.390624q0.859375 -0.5 1.921875 -0.5q1.078125 0 1.921875 0.5q0.84375 0.49999905 1.328125 1.390624q0.484375 0.875 0.484375 2.015625l-0.015625 0.328125zm-3.71875 -3.34375q-1.109375 0 -1.875 0.71875q-0.75 0.703125 -0.84375 1.84375l5.46875 0q-0.109375 -1.140625 -0.875 -1.84375q-0.75 -0.71875 -1.875 -0.71875zm9.789917 -0.89062405q1.453125 0 2.3125 0.84374905q0.859375 0.84375 0.859375 2.453125l0 4.46875l-1.046875 0l0 -4.375q0 -1.1875 -0.609375 -1.8125q-0.59375 -0.640625 -1.703125 -0.640625q-1.25 0 -1.984375 0.75q-0.71875 0.734375 -0.71875 2.03125l0 4.046875l-1.03125 0l0 -7.703124l1.0 0l0 1.421874q0.421875 -0.703125 1.171875 -1.093749q0.75 -0.390625 1.75 -0.390625zm10.062927 7.296874q-0.296875 0.265625 -0.734375 0.40625q-0.421875 0.140625 -0.890625 0.140625q-1.09375 0 -1.6875 -0.578125q-0.578125 -0.59375 -0.578125 -1.671875l0 -4.65625l-1.375 0l0 -0.87499905l1.375 0l0 -1.6875l1.046875 0l0 1.6875l2.34375 0l0 0.87499905l-2.34375 0l0 4.59375q0 0.703125 0.34375 1.0625q0.34375 0.34375 0.984375 0.34375q0.328125 0 0.625 -0.09375q0.296875 -0.109375 0.515625 -0.296875l0.375 0.75z" fill-rule="nonzero"/><path fill="#000000" d="m479.5564 33.34932l1.03125 0l0 7.703125l-1.03125 0l0 -7.703125zm0.53125 -1.6875019q-0.328125 0 -0.546875 -0.21875q-0.21875 -0.21875 -0.21875 -0.53125q0 -0.296875 0.21875 -0.515625q0.21875 -0.21875 0.546875 -0.21875q0.3125 0 0.53125 0.21875q0.21875 0.203125 0.21875 0.5q0 0.328125 -0.21875 0.546875q-0.21875 0.21875 -0.53125 0.21875zm10.442566 -1.484375l0 10.875002l-1.0 0l0 -1.53125q-0.46875 0.78125 -1.234375 1.203125q-0.765625 0.40625 -1.734375 0.40625q-1.09375 0 -1.96875 -0.5q-0.875 -0.5 -1.375 -1.390625q-0.5 -0.90625 -0.5 -2.046875q0 -1.140625 0.5 -2.03125q0.5 -0.890625 1.375 -1.375q0.875 -0.5 1.96875 -0.5q0.9375 0 1.6875 0.390625q0.765625 0.390625 1.25 1.125l0 -4.625002l1.03125 0zm-3.875 10.031252q0.796875 0 1.453125 -0.375q0.65625 -0.375 1.015625 -1.0625q0.375 -0.6875 0.375 -1.578125q0 -0.875 -0.375 -1.5625q-0.359375 -0.6875 -1.015625 -1.0625q-0.65625 -0.375 -1.453125 -0.375q-0.828125 0 -1.484375 0.375q-0.640625 0.375 -1.015625 1.0625q-0.375 0.6875 -0.375 1.5625q0 0.890625 0.375 1.578125q0.375 0.6875 1.015625 1.0625q0.65625 0.375 1.484375 0.375zm13.483856 -2.6875l-6.4375 0q0.078125 1.203125 0.90625 1.953125q0.84375 0.734375 2.125 0.734375q0.71875 0 1.3125 -0.25q0.609375 -0.265625 1.046875 -0.765625l0.578125 0.671875q-0.5 0.609375 -1.28125 0.9375q-0.765625 0.328125 -1.6875 0.328125q-1.1875 0 -2.109375 -0.5q-0.90625 -0.515625 -1.421875 -1.40625q-0.515625 -0.890625 -0.515625 -2.03125q0 -1.125 0.484375 -2.015625q0.5 -0.890625 1.359375 -1.390625q0.859375 -0.5 1.921875 -0.5q1.078125 0 1.921875 0.5q0.84375 0.5 1.328125 1.390625q0.484375 0.875 0.484375 2.015625l-0.015625 0.328125zm-3.71875 -3.34375q-1.109375 0 -1.875 0.71875q-0.75 0.703125 -0.84375 1.84375l5.46875 0q-0.109375 -1.140625 -0.875 -1.84375q-0.75 -0.71875 -1.875 -0.71875zm9.789886 -0.890625q1.453125 0 2.3125 0.84375q0.859375 0.84375 0.859375 2.453125l0 4.46875l-1.046875 0l0 -4.375q0 -1.1875 -0.609375 -1.8125q-0.59375 -0.640625 -1.703125 -0.640625q-1.25 0 -1.984375 0.75q-0.71875 0.734375 -0.71875 2.03125l0 4.046875l-1.03125 0l0 -7.703125l1.0 0l0 1.421875q0.421875 -0.703125 1.171875 -1.09375q0.75 -0.390625 1.75 -0.390625zm10.062927 7.296875q-0.296875 0.265625 -0.734375 0.40625q-0.421875 0.140625 -0.890625 0.140625q-1.09375 0 -1.6875 -0.578125q-0.578125 -0.59375 -0.578125 -1.671875l0 -4.65625l-1.3749695 0l0 -0.875l1.3749695 0l0 -1.6875019l1.046875 0l0 1.6875019l2.34375 0l0 0.875l-2.34375 0l0 4.59375q0 0.703125 0.34375 1.0625q0.34375 0.34375 0.984375 0.34375q0.328125 0 0.625 -0.09375q0.296875 -0.109375 0.515625 -0.296875l0.375 0.75zm1.8880005 -7.234375l1.03125 0l0 7.703125l-1.03125 0l0 -7.703125zm0.53125 -1.6875019q-0.328125 0 -0.546875 -0.21875q-0.21875 -0.21875 -0.21875 -0.53125q0 -0.296875 0.21875 -0.515625q0.21875 -0.21875 0.546875 -0.21875q0.3125 0 0.53125 0.21875q0.21875 0.203125 0.21875 0.5q0 0.328125 -0.21875 0.546875q-0.21875 0.21875 -0.53125 0.21875zm5.95813 -0.671875q-0.671875 0 -1.015625 0.359375q-0.34375 0.359375 -0.34375 1.0781269l0 0.921875l2.375 0l0 0.875l-2.34375 0l0 6.828125l-1.046875 0l0 -6.828125l-1.375 0l0 -0.875l1.375 0l0 -0.953125q0 -1.0625019 0.609375 -1.6718769q0.609375 -0.625 1.71875 -0.625q0.4375 0 0.84375 0.125q0.421875 0.125 0.703125 0.359375l-0.359375 0.78125q-0.453125 -0.375 -1.140625 -0.375zm3.59375 2.359377l1.03125 0l0 7.703125l-1.03125 0l0 -7.703125zm0.53125 -1.6875019q-0.328125 0 -0.546875 -0.21875q-0.21875 -0.21875 -0.21875 -0.53125q0 -0.296875 0.21875 -0.515625q0.21875 -0.21875 0.546875 -0.21875q0.3125 0 0.53125 0.21875q0.21875 0.203125 0.21875 0.5q0 0.328125 -0.21875 0.546875q-0.21875 0.21875 -0.53125 0.21875zm10.114807 5.859377l-6.4375 0q0.078125 1.203125 0.90625 1.953125q0.84375 0.734375 2.125 0.734375q0.71875 0 1.3125 -0.25q0.609375 -0.265625 1.046875 -0.765625l0.578125 0.671875q-0.5 0.609375 -1.28125 0.9375q-0.765625 0.328125 -1.6875 0.328125q-1.1875 0 -2.109375 -0.5q-0.90625 -0.515625 -1.421875 -1.40625q-0.515625 -0.890625 -0.515625 -2.03125q0 -1.125 0.484375 -2.015625q0.5 -0.890625 1.359375 -1.390625q0.859375 -0.5 1.921875 -0.5q1.078125 0 1.921875 0.5q0.84375 0.5 1.328125 1.390625q0.484375 0.875 0.484375 2.015625l-0.015625 0.328125zm-3.71875 -3.34375q-1.109375 0 -1.875 0.71875q-0.75 0.703125 -0.84375 1.84375l5.46875 0q-0.109375 -1.140625 -0.875 -1.84375q-0.75 -0.71875 -1.875 -0.71875zm6.868042 0.671875q0.359375 -0.765625 1.078125 -1.15625q0.734375 -0.40625 1.796875 -0.40625l0 1.015625l-0.25 -0.015625q-1.203125 0 -1.90625 0.75q-0.6875 0.734375 -0.6875 2.09375l0 3.921875l-1.03125 0l0 -7.703125l1.0 0l0 1.5z" fill-rule="nonzero"/><path fill="#000000" fill-opacity="0.0" d="m255.67323 169.0151l0 -57.858276" fill-rule="evenodd"/><path stroke="#000000" stroke-width="1.0" stroke-linejoin="round" stroke-linecap="butt" d="m255.67323 169.0151l0 -51.85827" fill-rule="evenodd"/><path fill="#000000" stroke="#000000" stroke-width="1.0" stroke-linecap="butt" d="m257.32495 117.15684l-1.6517181 -4.538101l-1.6517334 4.538101z" fill-rule="evenodd"/><path fill="#000000" fill-opacity="0.0" d="m241.99081 122.2664l138.51968 0l0 35.65355l-138.51968 0z" fill-rule="evenodd"/><path fill="#000000" d="m264.8244 134.91016q-0.609375 0 -0.921875 0.34375q-0.3125 0.328125 -0.3125 0.96875l0 0.828125l2.15625 0l0 0.8125l-2.140625 0l0 6.203125l-0.9375 0l0 -6.203125l-1.25 0l0 -0.8125l1.25 0l0 -0.859375q0 -0.96875 0.546875 -1.515625q0.546875 -0.5625 1.5625 -0.5625q0.40625 0 0.78125 0.109375q0.375 0.109375 0.625 0.328125l-0.328125 0.703125q-0.40625 -0.34375 -1.03125 -0.34375zm4.080719 9.21875q-0.859375 0 -1.640625 -0.234375q-0.78125 -0.25 -1.21875 -0.625l0.421875 -0.75q0.453125 0.34375 1.109375 0.5625q0.671875 0.21875 1.390625 0.21875q0.953125 0 1.40625 -0.296875q0.46875 -0.296875 0.46875 -0.84375q0 -0.390625 -0.25 -0.609375q-0.25 -0.21875 -0.640625 -0.328125q-0.390625 -0.109375 -1.03125 -0.21875q-0.84375 -0.15625 -1.375 -0.328125q-0.515625 -0.171875 -0.890625 -0.5625q-0.359375 -0.40625 -0.359375 -1.109375q0 -0.875 0.734375 -1.4375q0.734375 -0.5625 2.046875 -0.5625q0.671875 0 1.34375 0.1875q0.6875 0.171875 1.125 0.46875l-0.40625 0.75q-0.859375 -0.59375 -2.0625 -0.59375q-0.90625 0 -1.375 0.328125q-0.453125 0.3125 -0.453125 0.828125q0 0.40625 0.25 0.640625q0.265625 0.234375 0.65625 0.359375q0.390625 0.109375 1.0625 0.234375q0.84375 0.15625 1.34375 0.3125q0.515625 0.15625 0.875 0.546875q0.359375 0.390625 0.359375 1.0625q0 0.921875 -0.765625 1.46875q-0.765625 0.53125 -2.125 0.53125zm4.7205505 -6.0q-0.28125 0 -0.5 -0.203125q-0.203125 -0.21875 -0.203125 -0.53125q0 -0.296875 0.203125 -0.5q0.21875 -0.21875 0.5 -0.21875q0.296875 0 0.5 0.21875q0.21875 0.203125 0.21875 0.5q0 0.3125 -0.21875 0.53125q-0.203125 0.203125 -0.5 0.203125zm0 6.0q-0.28125 0 -0.5 -0.203125q-0.203125 -0.21875 -0.203125 -0.53125q0 -0.296875 0.203125 -0.5q0.21875 -0.21875 0.5 -0.21875q0.296875 0 0.5 0.21875q0.21875 0.203125 0.21875 0.5q0 0.3125 -0.21875 0.53125q-0.203125 0.203125 -0.5 0.203125zm5.1849365 -7.125q1.375 0 2.109375 0.6875q0.734375 0.6875 0.734375 2.03125l0 4.34375l-0.90625 0l0 -1.09375q-0.3125 0.546875 -0.9375 0.859375q-0.625 0.296875 -1.46875 0.296875q-1.171875 0 -1.875 -0.546875q-0.6875 -0.5625 -0.6875 -1.484375q0 -0.890625 0.640625 -1.4375q0.65625 -0.546875 2.0625 -0.546875l2.234375 0l0 -0.4375q0 -0.90625 -0.515625 -1.375q-0.5 -0.46875 -1.484375 -0.46875q-0.65625 0 -1.28125 0.21875q-0.609375 0.21875 -1.046875 0.609375l-0.421875 -0.71875q0.53125 -0.453125 1.28125 -0.6875q0.75 -0.25 1.5625 -0.25zm-0.328125 6.375q0.796875 0 1.375 -0.359375q0.578125 -0.359375 0.859375 -1.0625l0 -1.140625l-2.203125 0q-1.796875 0 -1.796875 1.25q0 0.609375 0.453125 0.96875q0.46875 0.34375 1.3125 0.34375zm9.363556 -6.375q0.984375 0 1.78125 0.453125q0.796875 0.4375 1.25 1.25q0.453125 0.8125 0.453125 1.859375q0 1.03125 -0.453125 1.84375q-0.453125 0.8125 -1.25 1.265625q-0.796875 0.453125 -1.78125 0.453125q-0.890625 0 -1.59375 -0.375q-0.6875 -0.375 -1.125 -1.078125l0 1.390625l-0.90625 0l0 -9.890625l0.953125 0l0 4.21875q0.4375 -0.6875 1.125 -1.03125q0.6875 -0.359375 1.546875 -0.359375zm-0.078125 6.296875q0.734375 0 1.328125 -0.34375q0.609375 -0.34375 0.953125 -0.96875q0.34375 -0.625 0.34375 -1.421875q0 -0.8125 -0.34375 -1.4375q-0.34375 -0.625 -0.953125 -0.953125q-0.59375 -0.34375 -1.328125 -0.34375q-0.734375 0 -1.328125 0.34375q-0.59375 0.328125 -0.9375 0.953125q-0.34375 0.625 -0.34375 1.4375q0 0.796875 0.34375 1.421875q0.34375 0.625 0.9375 0.96875q0.59375 0.34375 1.328125 0.34375zm8.364563 0.828125q-1.015625 0 -1.828125 -0.453125q-0.8125 -0.46875 -1.28125 -1.28125q-0.46875 -0.8125 -0.46875 -1.828125q0 -1.03125 0.46875 -1.84375q0.46875 -0.8125 1.28125 -1.265625q0.8125 -0.453125 1.828125 -0.453125q1.015625 0 1.828125 0.453125q0.8125 0.453125 1.265625 1.265625q0.46875 0.8125 0.46875 1.84375q0 1.015625 -0.46875 1.828125q-0.453125 0.8125 -1.265625 1.28125q-0.8125 0.453125 -1.828125 0.453125zm0 -0.828125q0.75 0 1.34375 -0.34375q0.59375 -0.34375 0.921875 -0.96875q0.328125 -0.625 0.328125 -1.421875q0 -0.8125 -0.328125 -1.4375q-0.328125 -0.625 -0.921875 -0.953125q-0.59375 -0.34375 -1.34375 -0.34375q-0.75 0 -1.34375 0.34375q-0.59375 0.328125 -0.9375 0.953125q-0.328125 0.625 -0.328125 1.4375q0 0.796875 0.328125 1.421875q0.34375 0.625 0.9375 0.96875q0.59375 0.34375 1.34375 0.34375zm11.809845 -6.25l0 7.015625l-0.90625 0l0 -1.28125q-0.375 0.640625 -1.03125 1.0q-0.65625 0.34375 -1.484375 0.34375q-1.375 0 -2.171875 -0.765625q-0.796875 -0.765625 -0.796875 -2.25l0 -4.0625l0.953125 0l0 3.984375q0 1.09375 0.546875 1.671875q0.546875 0.578125 1.5625 0.578125q1.09375 0 1.734375 -0.671875q0.640625 -0.671875 0.640625 -1.875l0 -3.6875l0.953125 0zm6.3447876 6.59375q-0.265625 0.234375 -0.671875 0.359375q-0.390625 0.125 -0.8125 0.125q-0.984375 0 -1.515625 -0.53125q-0.53125 -0.53125 -0.53125 -1.5l0 -4.234375l-1.25 0l0 -0.8125l1.25 0l0 -1.53125l0.9375 0l0 1.53125l2.140625 0l0 0.8125l-2.140625 0l0 4.171875q0 0.625 0.3125 0.953125q0.3125 0.328125 0.90625 0.328125q0.296875 0 0.5625 -0.09375q0.28125 -0.09375 0.46875 -0.265625l0.34375 0.6875zm5.411194 -8.90625q1.78125 0 2.796875 0.859375q1.015625 0.84375 1.015625 2.34375q0 1.484375 -1.015625 2.328125q-1.015625 0.84375 -2.796875 0.84375l-2.515625 0l0 2.953125l-0.984375 0l0 -9.328125l3.5 0zm-0.03125 5.515625q1.390625 0 2.125 -0.609375q0.734375 -0.609375 0.734375 -1.703125q0 -1.140625 -0.734375 -1.75q-0.734375 -0.609375 -2.125 -0.609375l-2.484375 0l0 4.671875l2.484375 0zm11.83371 0.59375l-5.859375 0q0.078125 1.09375 0.828125 1.78125q0.765625 0.671875 1.921875 0.671875q0.65625 0 1.203125 -0.234375q0.546875 -0.234375 0.953125 -0.6875l0.53125 0.609375q-0.46875 0.5625 -1.171875 0.859375q-0.703125 0.28125 -1.53125 0.28125q-1.078125 0 -1.921875 -0.453125q-0.828125 -0.46875 -1.296875 -1.28125q-0.46875 -0.8125 -0.46875 -1.828125q0 -1.03125 0.4375 -1.84375q0.453125 -0.8125 1.234375 -1.265625q0.78125 -0.453125 1.75 -0.453125q0.984375 0 1.75 0.453125q0.78125 0.453125 1.21875 1.265625q0.4375 0.796875 0.4375 1.84375l-0.015625 0.28125zm-3.390625 -3.03125q-1.0 0 -1.6875 0.65625q-0.6875 0.640625 -0.78125 1.671875l4.96875 0q-0.09375 -1.03125 -0.78125 -1.671875q-0.6875 -0.65625 -1.71875 -0.65625zm6.237671 0.609375q0.34375 -0.703125 1.0 -1.0625q0.65625 -0.359375 1.625 -0.359375l0 0.921875l-0.21875 -0.015625q-1.109375 0 -1.734375 0.6875q-0.625 0.671875 -0.625 1.890625l0 3.578125l-0.953125 0l0 -7.015625l0.90625 0l0 1.375zm6.2756042 5.703125q-0.859375 0 -1.640625 -0.234375q-0.78125 -0.25 -1.21875 -0.625l0.421875 -0.75q0.453125 0.34375 1.109375 0.5625q0.671875 0.21875 1.390625 0.21875q0.953125 0 1.40625 -0.296875q0.46875 -0.296875 0.46875 -0.84375q0 -0.390625 -0.25 -0.609375q-0.25 -0.21875 -0.640625 -0.328125q-0.390625 -0.109375 -1.03125 -0.21875q-0.84375 -0.15625 -1.375 -0.328125q-0.515625 -0.171875 -0.890625 -0.5625q-0.359375 -0.40625 -0.359375 -1.109375q0 -0.875 0.734375 -1.4375q0.734375 -0.5625 2.046875 -0.5625q0.671875 0 1.34375 0.1875q0.6875 0.171875 1.125 0.46875l-0.40625 0.75q-0.859375 -0.59375 -2.0625 -0.59375q-0.90625 0 -1.375 0.328125q-0.453125 0.3125 -0.453125 0.828125q0 0.40625 0.25 0.640625q0.265625 0.234375 0.65625 0.359375q0.390625 0.109375 1.0625 0.234375q0.84375 0.15625 1.34375 0.3125q0.515625 0.15625 0.875 0.546875q0.359375 0.390625 0.359375 1.0625q0 0.921875 -0.765625 1.46875q-0.765625 0.53125 -2.125 0.53125zm7.5018005 0q-1.015625 0 -1.828125 -0.453125q-0.8125 -0.46875 -1.28125 -1.28125q-0.46875 -0.8125 -0.46875 -1.828125q0 -1.03125 0.46875 -1.84375q0.46875 -0.8125 1.28125 -1.265625q0.8125 -0.453125 1.828125 -0.453125q1.015625 0 1.828125 0.453125q0.8125 0.453125 1.265625 1.265625q0.46875 0.8125 0.46875 1.84375q0 1.015625 -0.46875 1.828125q-0.453125 0.8125 -1.265625 1.28125q-0.8125 0.453125 -1.828125 0.453125zm0 -0.828125q0.75 0 1.34375 -0.34375q0.59375 -0.34375 0.921875 -0.96875q0.328125 -0.625 0.328125 -1.421875q0 -0.8125 -0.328125 -1.4375q-0.328125 -0.625 -0.921875 -0.953125q-0.59375 -0.34375 -1.34375 -0.34375q-0.75 0 -1.34375 0.34375q-0.59375 0.328125 -0.9375 0.953125q-0.328125 0.625 -0.328125 1.4375q0 0.796875 0.328125 1.421875q0.34375 0.625 0.9375 0.96875q0.59375 0.34375 1.34375 0.34375zm9.059814 -6.296875q1.3125 0 2.09375 0.765625q0.78125 0.765625 0.78125 2.234375l0 4.0625l-0.9375 0l0 -3.96875q0 -1.09375 -0.546875 -1.65625q-0.546875 -0.578125 -1.5625 -0.578125q-1.140625 0 -1.796875 0.671875q-0.65625 0.671875 -0.65625 1.859375l0 3.671875l-0.953125 0l0 -7.015625l0.90625 0l0 1.296875q0.390625 -0.640625 1.078125 -0.984375q0.6875 -0.359375 1.59375 -0.359375z" fill-rule="nonzero"/><path fill="#000000" fill-opacity="0.0" d="m324.93307 74.25853l135.49606 44.850395" fill-rule="evenodd"/><path stroke="#000000" stroke-width="1.0" stroke-linejoin="round" stroke-linecap="butt" d="m324.93307 74.25853l129.79999 42.96495" fill-rule="evenodd"/><path fill="#000000" stroke="#000000" stroke-width="1.0" stroke-linecap="butt" d="m454.21402 118.79154l4.8272705 -0.14200592l-3.7891846 -2.9941177z" fill-rule="evenodd"/><path fill="#000000" fill-opacity="0.0" d="m324.93307 74.25853l135.49606 76.47244" fill-rule="evenodd"/><path stroke="#000000" stroke-width="1.0" stroke-linejoin="round" stroke-linecap="butt" d="m324.93307 74.25853l130.27084 73.52338" fill-rule="evenodd"/><path fill="#000000" stroke="#000000" stroke-width="1.0" stroke-linecap="butt" d="m454.39206 149.22035l4.7639465 0.79208374l-3.1402588 -3.6689758z" fill-rule="evenodd"/><path fill="#000000" fill-opacity="0.0" d="m324.93307 205.92848l135.49606 -86.83464" fill-rule="evenodd"/><path stroke="#000000" stroke-width="1.0" stroke-linejoin="round" stroke-linecap="butt" d="m324.93307 205.92848l130.44443 -83.59722" fill-rule="evenodd"/><path fill="#000000" stroke="#000000" stroke-width="1.0" stroke-linecap="butt" d="m456.2687 123.721924l2.929596 -3.8392792l-4.712036 1.0579605z" fill-rule="evenodd"/><path fill="#000000" fill-opacity="0.0" d="m460.42914 106.38513l102.74017 0l0 25.448822l-102.74017 0z" fill-rule="evenodd"/><path stroke="#000000" stroke-width="1.0" stroke-linejoin="round" stroke-linecap="butt" d="m460.42914 106.38513l102.74017 0l0 25.448822l-102.74017 0z" fill-rule="evenodd"/><path fill="#000000" d="m495.5915 113.314545l1.03125 0l0 10.875l-1.03125 0l0 -10.875zm6.6300354 3.109375q1.515625 0 2.3125 0.75q0.8125 0.75 0.8125 2.234375l0 4.78125l-1.0 0l0 -1.203125q-0.34375 0.609375 -1.03125 0.953125q-0.671875 0.328125 -1.609375 0.328125q-1.296875 0 -2.0625 -0.609375q-0.75 -0.625 -0.75 -1.640625q0 -0.984375 0.703125 -1.578125q0.71875 -0.609375 2.265625 -0.609375l2.453125 0l0 -0.46875q0 -0.984375 -0.5625 -1.5q-0.5625 -0.53125 -1.625 -0.53125q-0.734375 0 -1.40625 0.25q-0.671875 0.234375 -1.15625 0.65625l-0.46875 -0.78125q0.578125 -0.484375 1.390625 -0.75q0.828125 -0.28125 1.734375 -0.28125zm-0.359375 7.015625q0.875 0 1.5 -0.390625q0.640625 -0.40625 0.953125 -1.171875l0 -1.265625l-2.421875 0q-1.984375 0 -1.984375 1.375q0 0.671875 0.515625 1.0625q0.515625 0.390625 1.4375 0.390625zm10.287872 -7.015625q1.078125 0 1.953125 0.5q0.890625 0.484375 1.390625 1.375q0.5 0.890625 0.5 2.03125q0 1.140625 -0.5 2.046875q-0.5 0.890625 -1.390625 1.390625q-0.875 0.5 -1.953125 0.5q-0.9687805 0 -1.7344055 -0.40625q-0.765625 -0.421875 -1.234375 -1.203125l0 1.53125l-1.0 0l0 -10.875l1.03125 0l0 4.625q0.484375 -0.734375 1.234375 -1.125q0.765625 -0.390625 1.7031555 -0.390625zm-0.078125 6.921875q0.8125 0 1.46875 -0.375q0.65625 -0.375 1.03125 -1.0625q0.375 -0.6875 0.375 -1.578125q0 -0.875 -0.375 -1.5625q-0.375 -0.6875 -1.03125 -1.0625q-0.65625 -0.375 -1.46875 -0.375q-0.8125305 0 -1.4687805 0.375q-0.65625 0.375 -1.03125 1.0625q-0.359375 0.6875 -0.359375 1.5625q0 0.890625 0.359375 1.578125q0.375 0.6875 1.03125 1.0625q0.65625 0.375 1.4687805 0.375zm12.749451 -2.6875l-6.4375 0q0.078125 1.203125 0.90625 1.953125q0.84375 0.734375 2.125 0.734375q0.71875 0 1.3125 -0.25q0.609375 -0.265625 1.046875 -0.765625l0.578125 0.671875q-0.5 0.609375 -1.28125 0.9375q-0.765625 0.328125 -1.6875 0.328125q-1.1875 0 -2.109375 -0.5q-0.90625 -0.515625 -1.421875 -1.40625q-0.515625 -0.890625 -0.515625 -2.03125q0 -1.125 0.484375 -2.015625q0.5 -0.890625 1.359375 -1.390625q0.859375 -0.5 1.921875 -0.5q1.078125 0 1.921875 0.5q0.84375 0.5 1.328125 1.390625q0.484375 0.875 0.484375 2.015625l-0.015625 0.328125zm-3.71875 -3.34375q-1.109375 0 -1.875 0.71875q-0.75 0.703125 -0.84375 1.84375l5.46875 0q-0.109375 -1.140625 -0.875 -1.84375q-0.75 -0.71875 -1.875 -0.71875zm5.868042 -4.0l1.03125 0l0 10.875l-1.03125 0l0 -10.875z" fill-rule="nonzero"/><path fill="#000000" fill-opacity="0.0" d="m460.42914 138.01768l102.74017 0l0 25.448822l-102.74017 0z" fill-rule="evenodd"/><path stroke="#000000" stroke-width="1.0" stroke-linejoin="round" stroke-linecap="butt" d="m460.42914 138.01768l102.74017 0l0 25.448822l-102.74017 0z" fill-rule="evenodd"/><path fill="#000000" d="m479.85776 155.90022q-1.140625 0 -2.046875 -0.5q-0.890625 -0.5 -1.40625 -1.390625q-0.515625 -0.90625 -0.515625 -2.046875q0 -1.125 0.515625 -2.015625q0.515625 -0.890625 1.40625 -1.390625q0.90625 -0.5 2.046875 -0.5q1.0 0 1.78125 0.390625q0.78125 0.390625 1.25 1.125l-0.78125 0.53125q-0.390625 -0.5625 -0.984375 -0.84375q-0.578125 -0.296875 -1.265625 -0.296875q-0.828125 0 -1.5 0.375q-0.65625 0.375 -1.03125 1.0625q-0.375 0.6875 -0.375 1.5625q0 0.90625 0.375 1.59375q0.375 0.671875 1.03125 1.046875q0.671875 0.375 1.5 0.375q0.6875 0 1.265625 -0.28125q0.59375 -0.28125 0.984375 -0.859375l0.78125 0.53125q-0.46875 0.75 -1.265625 1.140625q-0.78125 0.390625 -1.765625 0.390625zm8.088226 0q-1.125 0 -2.015625 -0.5q-0.890625 -0.515625 -1.40625 -1.40625q-0.515625 -0.890625 -0.515625 -2.03125q0 -1.125 0.515625 -2.015625q0.515625 -0.890625 1.40625 -1.390625q0.890625 -0.5 2.015625 -0.5q1.109375 0 2.0 0.5q0.890625 0.5 1.390625 1.390625q0.515625 0.890625 0.515625 2.015625q0 1.140625 -0.515625 2.03125q-0.5 0.890625 -1.390625 1.40625q-0.890625 0.5 -2.0 0.5zm0 -0.921875q0.8125 0 1.46875 -0.375q0.65625 -0.375 1.015625 -1.0625q0.359375 -0.6875 0.359375 -1.578125q0 -0.875 -0.359375 -1.5625q-0.359375 -0.6875 -1.015625 -1.0625q-0.65625 -0.375 -1.46875 -0.375q-0.828125 0 -1.484375 0.375q-0.640625 0.375 -1.015625 1.0625q-0.375 0.6875 -0.375 1.5625q0 0.890625 0.375 1.578125q0.375 0.6875 1.015625 1.0625q0.65625 0.375 1.484375 0.375zm15.642639 -6.921875q1.453125 0 2.28125 0.84375q0.828125 0.828125 0.828125 2.453125l0 4.46875l-1.046875 0l0 -4.375q0 -1.1875 -0.578125 -1.8125q-0.578125 -0.640625 -1.625 -0.640625q-1.203125 0 -1.890625 0.75q-0.6875 0.734375 -0.6875 2.03125l0 4.046875l-1.046875 0l0 -4.375q0 -1.1875 -0.578125 -1.8125q-0.578125 -0.640625 -1.640625 -0.640625q-1.1875 0 -1.890625 0.75q-0.703125 0.734375 -0.703125 2.03125l0 4.046875l-1.03125 0l0 -7.703125l1.0 0l0 1.40625q0.40625 -0.703125 1.140625 -1.078125q0.734375 -0.390625 1.6875 -0.390625q0.96875 0 1.671875 0.40625q0.71875 0.40625 1.0625 1.21875q0.421875 -0.765625 1.21875 -1.1875q0.8125 -0.4375 1.828125 -0.4375zm15.550354 0q1.453125 0 2.28125 0.84375q0.828125 0.828125 0.828125 2.453125l0 4.46875l-1.046875 0l0 -4.375q0 -1.1875 -0.578125 -1.8125q-0.578125 -0.640625 -1.625 -0.640625q-1.203125 0 -1.890625 0.75q-0.6875 0.734375 -0.6875 2.03125l0 4.046875l-1.046875 0l0 -4.375q0 -1.1875 -0.578125 -1.8125q-0.578125 -0.640625 -1.640625 -0.640625q-1.1875305 0 -1.8906555 0.75q-0.703125 0.734375 -0.703125 2.03125l0 4.046875l-1.03125 0l0 -7.703125l1.0 0l0 1.40625q0.40625 -0.703125 1.140625 -1.078125q0.7344055 -0.390625 1.6875305 -0.390625q0.96875 0 1.671875 0.40625q0.71875 0.40625 1.0625 1.21875q0.421875 -0.765625 1.21875 -1.1875q0.8125 -0.4375 1.828125 -0.4375zm12.673401 4.234375l-6.4375 0q0.078125 1.203125 0.90625 1.953125q0.84375 0.734375 2.125 0.734375q0.71875 0 1.3125 -0.25q0.609375 -0.265625 1.046875 -0.765625l0.578125 0.671875q-0.5 0.609375 -1.28125 0.9375q-0.765625 0.328125 -1.6875 0.328125q-1.1875 0 -2.109375 -0.5q-0.90625 -0.515625 -1.421875 -1.40625q-0.515625 -0.890625 -0.515625 -2.03125q0 -1.125 0.484375 -2.015625q0.5 -0.890625 1.359375 -1.390625q0.859375 -0.5 1.921875 -0.5q1.078125 0 1.921875 0.5q0.84375 0.5 1.328125 1.390625q0.484375 0.875 0.484375 2.015625l-0.015625 0.328125zm-3.71875 -3.34375q-1.109375 0 -1.875 0.71875q-0.75 0.703125 -0.84375 1.84375l5.46875 0q-0.109375 -1.140625 -0.875 -1.84375q-0.75 -0.71875 -1.875 -0.71875zm9.789917 -0.890625q1.453125 0 2.3125 0.84375q0.859375 0.84375 0.859375 2.453125l0 4.46875l-1.046875 0l0 -4.375q0 -1.1875 -0.609375 -1.8125q-0.59375 -0.640625 -1.703125 -0.640625q-1.25 0 -1.984375 0.75q-0.71875 0.734375 -0.71875 2.03125l0 4.046875l-1.03125 0l0 -7.703125l1.0 0l0 1.421875q0.421875 -0.703125 1.171875 -1.09375q0.75 -0.390625 1.75 -0.390625zm10.062927 7.296875q-0.296875 0.265625 -0.734375 0.40625q-0.421875 0.140625 -0.890625 0.140625q-1.09375 0 -1.6875 -0.578125q-0.578125 -0.59375 -0.578125 -1.671875l0 -4.65625l-1.375 0l0 -0.875l1.375 0l0 -1.6875l1.046875 0l0 1.6875l2.34375 0l0 0.875l-2.34375 0l0 4.59375q0 0.703125 0.34375 1.0625q0.34375 0.34375 0.984375 0.34375q0.328125 0 0.625 -0.09375q0.296875 -0.109375 0.515625 -0.296875l0.375 0.75z" fill-rule="nonzero"/><path fill="#000000" fill-opacity="0.0" d="m324.93307 205.92848l135.49606 -55.18109" fill-rule="evenodd"/><path stroke="#000000" stroke-width="1.0" stroke-linejoin="round" stroke-linecap="butt" d="m324.93307 205.92848l129.93921 -52.91806" fill-rule="evenodd"/><path fill="#000000" stroke="#000000" stroke-width="1.0" stroke-linecap="butt" d="m455.49527 154.54016l3.5799255 -3.2413788l-4.825897 0.18190002z" fill-rule="evenodd"/><path fill="#000000" fill-opacity="0.0" d="m186.41339 74.25853l-73.48032 41.95276" fill-rule="evenodd"/><path stroke="#000000" stroke-width="1.0" stroke-linejoin="round" stroke-linecap="butt" stroke-dasharray="4.0,3.0" d="m186.41339 74.25853l-68.26976 38.977844" fill-rule="evenodd"/><path fill="#000000" stroke="#000000" stroke-width="1.0" stroke-linecap="butt" d="m117.32467 111.80197l-3.1220398 3.6844788l4.7599564 -0.8156662z" fill-rule="evenodd"/><path fill="#000000" fill-opacity="0.0" d="m186.41339 205.92848l-73.48032 -48.818893" fill-rule="evenodd"/><path stroke="#000000" stroke-width="1.0" stroke-linejoin="round" stroke-linecap="butt" stroke-dasharray="4.0,3.0" d="m186.41339 205.92848l-68.48275 -45.498596" fill-rule="evenodd"/><path fill="#000000" stroke="#000000" stroke-width="1.0" stroke-linecap="butt" d="m118.84468 159.05411l-4.693947 -1.1355286l2.8658676 3.8870697z" fill-rule="evenodd"/><path fill="#000000" fill-opacity="0.0" d="m3.8070867 136.66011l0 0c0 -15.977127 28.618523 -28.929138 63.92126 -28.929138l0 0c35.302734 0 63.921265 12.952011 63.921265 28.929138l0 0c0 15.977112 -28.61853 28.929123 -63.921265 28.929123l0 0c-35.30274 0 -63.92126 -12.952011 -63.92126 -28.929123z" fill-rule="evenodd"/><path stroke="#000000" stroke-width="1.0" stroke-linejoin="round" stroke-linecap="butt" d="m3.8070867 136.66011l0 0c0 -15.977127 28.618523 -28.929138 63.92126 -28.929138l0 0c35.302734 0 63.921265 12.952011 63.921265 28.929138l0 0c0 15.977112 -28.61853 28.929123 -63.921265 28.929123l0 0c-35.30274 0 -63.92126 -12.952011 -63.92126 -28.929123z" fill-rule="evenodd"/><path fill="#000000" d="m36.017693 135.53699q0.359375 -0.765625 1.078125 -1.15625q0.734375 -0.40625 1.796875 -0.40625l0 1.015625l-0.25 -0.015625q-1.203125 0 -1.90625 0.75q-0.6875 0.734375 -0.6875 2.09375l0 3.921875l-1.03125 0l0 -7.703125l1.0 0l0 1.5zm11.717758 -4.671875l0 10.875l-1.0 0l0 -1.53125q-0.46875 0.78125 -1.234375 1.203125q-0.765625 0.40625 -1.734375 0.40625q-1.09375 0 -1.96875 -0.5q-0.875 -0.5 -1.375 -1.390625q-0.5 -0.90625 -0.5 -2.046875q0 -1.140625 0.5 -2.03125q0.5 -0.890625 1.375 -1.375q0.875 -0.5 1.96875 -0.5q0.9375 0 1.6875 0.390625q0.765625 0.390625 1.25 1.125l0 -4.625l1.03125 0zm-3.875 10.03125q0.796875 0 1.453125 -0.375q0.65625 -0.375 1.015625 -1.0625q0.375 -0.6875 0.375 -1.578125q0 -0.875 -0.375 -1.5625q-0.359375 -0.6875 -1.015625 -1.0625q-0.65625 -0.375 -1.453125 -0.375q-0.828125 0 -1.484375 0.375q-0.640625 0.375 -1.015625 1.0625q-0.375 0.6875 -0.375 1.5625q0 0.890625 0.375 1.578125q0.375 0.6875 1.015625 1.0625q0.65625 0.375 1.484375 0.375zm9.327606 -9.21875q-0.671875 0 -1.015625 0.359375q-0.34375 0.359375 -0.34375 1.078125l0 0.921875l2.375 0l0 0.875l-2.34375 0l0 6.828125l-1.046875 0l0 -6.828125l-1.375 0l0 -0.875l1.375 0l0 -0.953125q0 -1.0625 0.609375 -1.671875q0.609375 -0.625 1.71875 -0.625q0.4375 0 0.84375 0.125q0.421875 0.125 0.703125 0.359375l-0.359375 0.78125q-0.453125 -0.375 -1.140625 -0.375zm4.4841156 10.140625q-0.9375 0 -1.796875 -0.265625q-0.859375 -0.28125 -1.34375 -0.6875l0.46875 -0.828125q0.484375 0.390625 1.21875 0.640625q0.734375 0.234375 1.53125 0.234375q1.046875 0 1.546875 -0.328125q0.515625 -0.34375 0.515625 -0.9375q0 -0.421875 -0.28125 -0.65625q-0.28125 -0.25 -0.703125 -0.375q-0.421875 -0.125 -1.125 -0.25q-0.9375 -0.171875 -1.515625 -0.34375q-0.5625 -0.1875 -0.96875 -0.625q-0.40625 -0.453125 -0.40625 -1.21875q0 -0.96875 0.796875 -1.578125q0.8125 -0.625 2.25 -0.625q0.75 0 1.5 0.203125q0.75 0.1875 1.234375 0.515625l-0.453125 0.828125q-0.953125 -0.65625 -2.28125 -0.65625q-0.984375 0 -1.5 0.359375q-0.5 0.34375 -0.5 0.921875q0 0.4375 0.28125 0.703125q0.28125 0.265625 0.703125 0.390625q0.4375 0.125 1.1875 0.25q0.921875 0.171875 1.46875 0.359375q0.5625 0.171875 0.953125 0.59375q0.40625 0.421875 0.40625 1.171875q0 1.015625 -0.84375 1.609375q-0.84375 0.59375 -2.34375 0.59375zm5.198181 -6.0q-0.3125 0 -0.546875 -0.234375q-0.21875 -0.234375 -0.21875 -0.578125q0 -0.328125 0.21875 -0.5625q0.234375 -0.234375 0.546875 -0.234375q0.328125 0 0.5625 0.234375q0.234375 0.234375 0.234375 0.5625q0 0.34375 -0.234375 0.578125q-0.234375 0.234375 -0.5625 0.234375zm0 6.0q-0.3125 0 -0.546875 -0.234375q-0.21875 -0.234375 -0.21875 -0.578125q0 -0.328125 0.21875 -0.5625q0.234375 -0.234375 0.546875 -0.234375q0.328125 0 0.5625 0.234375q0.234375 0.234375 0.234375 0.5625q0 0.34375 -0.234375 0.578125q-0.234375 0.234375 -0.5625 0.234375zm7.685257 0.015625q-1.515625 0 -2.75 -0.671875q-1.21875 -0.6875 -1.921875 -1.875q-0.6875 -1.203125 -0.6875 -2.671875q0 -1.484375 0.6875 -2.671875q0.703125 -1.203125 1.921875 -1.875q1.234375 -0.671875 2.765625 -0.671875q1.140625 0 2.109375 0.390625q0.96875 0.375 1.640625 1.09375l-0.6875 0.703125q-1.203125 -1.21875 -3.03125 -1.21875q-1.21875 0 -2.21875 0.5625q-1.0 0.546875 -1.5625 1.515625q-0.5625 0.96875 -0.5625 2.171875q0 1.203125 0.5625 2.171875q0.5625 0.953125 1.5625 1.515625q1.0 0.5625 2.21875 0.5625q1.84375 0 3.03125 -1.234375l0.6875 0.6875q-0.671875 0.734375 -1.65625 1.125q-0.96875 0.390625 -2.109375 0.390625zm5.8660126 -10.96875l1.03125 0l0 10.875l-1.03125 0l0 -10.875zm6.6300507 3.109375q1.515625 0 2.3125 0.75q0.8125 0.75 0.8125 2.234375l0 4.78125l-1.0 0l0 -1.203125q-0.34375 0.609375 -1.03125 0.953125q-0.671875 0.328125 -1.609375 0.328125q-1.296875 0 -2.0625 -0.609375q-0.75 -0.625 -0.75 -1.640625q0 -0.984375 0.703125 -1.578125q0.71875 -0.609375 2.265625 -0.609375l2.453125 0l0 -0.46875q0 -0.984375 -0.5625 -1.5q-0.5625 -0.53125 -1.625 -0.53125q-0.734375 0 -1.40625 0.25q-0.671875 0.234375 -1.15625 0.65625l-0.46875 -0.78125q0.578125 -0.484375 1.390625 -0.75q0.828125 -0.28125 1.734375 -0.28125zm-0.359375 7.015625q0.875 0 1.5 -0.390625q0.640625 -0.40625 0.953125 -1.171875l0 -1.265625l-2.421875 0q-1.984375 0 -1.984375 1.375q0 0.671875 0.515625 1.0625q0.515625 0.390625 1.4375 0.390625zm8.381592 0.828125q-0.9375 0 -1.796875 -0.265625q-0.859375 -0.28125 -1.34375 -0.6875l0.46875 -0.828125q0.484375 0.390625 1.21875 0.640625q0.734375 0.234375 1.53125 0.234375q1.046875 0 1.546875 -0.328125q0.515625 -0.34375 0.515625 -0.9375q0 -0.421875 -0.28125 -0.65625q-0.28125 -0.25 -0.703125 -0.375q-0.421875 -0.125 -1.125 -0.25q-0.9375 -0.171875 -1.515625 -0.34375q-0.5625 -0.1875 -0.96875 -0.625q-0.40625 -0.453125 -0.40625 -1.21875q0 -0.96875 0.796875 -1.578125q0.8125 -0.625 2.25 -0.625q0.75 0 1.5 0.203125q0.75 0.1875 1.234375 0.515625l-0.453125 0.828125q-0.953125 -0.65625 -2.28125 -0.65625q-0.984375 0 -1.5 0.359375q-0.5 0.34375 -0.5 0.921875q0 0.4375 0.28125 0.703125q0.28125 0.265625 0.703125 0.390625q0.4375 0.125 1.1875 0.25q0.921875 0.171875 1.46875 0.359375q0.5625 0.171875 0.953125 0.59375q0.40625 0.421875 0.40625 1.171875q0 1.015625 -0.84375 1.609375q-0.84375 0.59375 -2.34375 0.59375zm7.166931 0q-0.9375 0 -1.796875 -0.265625q-0.859375 -0.28125 -1.34375 -0.6875l0.46875 -0.828125q0.484375 0.390625 1.21875 0.640625q0.734375 0.234375 1.53125 0.234375q1.046875 0 1.546875 -0.328125q0.515625 -0.34375 0.515625 -0.9375q0 -0.421875 -0.28125 -0.65625q-0.28125 -0.25 -0.703125 -0.375q-0.421875 -0.125 -1.125 -0.25q-0.9375 -0.171875 -1.515625 -0.34375q-0.5625 -0.1875 -0.96875 -0.625q-0.40625 -0.453125 -0.40625 -1.21875q0 -0.96875 0.796875 -1.578125q0.8125 -0.625 2.25 -0.625q0.75 0 1.5 0.203125q0.75 0.1875 1.234375 0.515625l-0.453125 0.828125q-0.953125 -0.65625 -2.28125 -0.65625q-0.984375 0 -1.5 0.359375q-0.5 0.34375 -0.5 0.921875q0 0.4375 0.28125 0.703125q0.28125 0.265625 0.703125 0.390625q0.4375 0.125 1.1875 0.25q0.921875 0.171875 1.46875 0.359375q0.5625 0.171875 0.953125 0.59375q0.40625 0.421875 0.40625 1.171875q0 1.015625 -0.84375 1.609375q-0.84375 0.59375 -2.34375 0.59375z" fill-rule="nonzero"/><path fill="#000000" fill-opacity="0.0" d="m44.122047 65.20079l138.51968 0l0 35.65354l-138.51968 0z" fill-rule="evenodd"/><path fill="#000000" d="m79.439674 87.063286q-0.859375 0 -1.640625 -0.234375q-0.78125 -0.25 -1.21875 -0.625l0.421875 -0.75q0.453125 0.34375 1.109375 0.5625q0.671875 0.21875 1.390625 0.21875q0.953125 0 1.40625 -0.296875q0.46875 -0.296875 0.46875 -0.84375q0 -0.390625 -0.25 -0.609375q-0.25 -0.21875 -0.640625 -0.328125q-0.390625 -0.109375 -1.03125 -0.21875q-0.84375 -0.15625 -1.375 -0.328125q-0.515625 -0.171875 -0.890625 -0.5625q-0.359375 -0.40625 -0.359375 -1.109375q0 -0.875 0.734375 -1.4375q0.734375 -0.5625 2.046875 -0.5625q0.671875 0 1.34375 0.1875q0.6875 0.171875 1.125 0.46875l-0.40625 0.75q-0.859375 -0.59375 -2.0625 -0.59375q-0.90625 0 -1.375 0.328125q-0.453125 0.3125 -0.453125 0.828125q0 0.40625 0.25 0.640625q0.265625 0.234375 0.65625 0.359375q0.390625 0.109375 1.0625 0.234375q0.84375 0.15625 1.34375 0.3125q0.515625 0.15625 0.875 0.546875q0.359375 0.390625 0.359375 1.0625q0 0.921875 -0.765625 1.46875q-0.765625 0.53125 -2.125 0.53125zm10.954926 -7.078125l0 7.015625l-0.90625 0l0 -1.28125q-0.375 0.640625 -1.03125 1.0q-0.65625 0.34375 -1.484375 0.34375q-1.375 0 -2.171875 -0.765625q-0.796875 -0.765625 -0.796875 -2.25l0 -4.0625l0.953125 0l0 3.984375q0 1.09375 0.546875 1.671875q0.546875 0.578125 1.5625 0.578125q1.09375 0 1.734375 -0.671875q0.640625 -0.671875 0.640625 -1.875l0 -3.6875l0.953125 0zm6.2666626 -0.046875q0.984375 0 1.78125 0.453125q0.796875 0.4375 1.25 1.25q0.453125 0.8125 0.453125 1.859375q0 1.03125 -0.453125 1.84375q-0.453125 0.8125 -1.25 1.265625q-0.796875 0.453125 -1.78125 0.453125q-0.890625 0 -1.59375 -0.375q-0.6875 -0.375 -1.125 -1.078125l0 1.390625l-0.90625 0l0 -9.890625l0.953125 0l0 4.21875q0.4375 -0.6875 1.125 -1.03125q0.6875 -0.359375 1.546875 -0.359375zm-0.078125 6.296875q0.734375 0 1.328125 -0.34375q0.609375 -0.34375 0.953125 -0.96875q0.34375 -0.625 0.34375 -1.421875q0 -0.8125 -0.34375 -1.4375q-0.34375 -0.625 -0.953125 -0.953125q-0.59375 -0.34375 -1.328125 -0.34375q-0.734375 0 -1.328125 0.34375q-0.59375 0.328125 -0.9375 0.953125q-0.34375 0.625 -0.34375 1.4375q0 0.796875 0.34375 1.421875q0.34375 0.625 0.9375 0.96875q0.59375 0.34375 1.328125 0.34375zm9.755188 0.84375q-1.390625 0 -2.515625 -0.609375q-1.109375 -0.609375 -1.75 -1.6875q-0.625 -1.09375 -0.625 -2.453125q0 -1.34375 0.625 -2.421875q0.640625 -1.09375 1.765625 -1.703125q1.125 -0.609375 2.5 -0.609375q1.046875 0 1.921875 0.34375q0.890625 0.34375 1.5 1.015625l-0.625 0.625q-1.09375 -1.109375 -2.765625 -1.109375q-1.109375 0 -2.015625 0.515625q-0.90625 0.5 -1.421875 1.390625q-0.5 0.875 -0.5 1.953125q0 1.09375 0.5 1.984375q0.515625 0.875 1.421875 1.390625q0.90625 0.5 2.015625 0.5q1.6875 0 2.765625 -1.125l0.625 0.625q-0.609375 0.671875 -1.5 1.03125q-0.890625 0.34375 -1.921875 0.34375zm5.3172607 -9.96875l0.953125 0l0 9.890625l-0.953125 0l0 -9.890625zm6.038376 2.828125q1.375 0 2.109375 0.6875q0.734375 0.6875 0.734375 2.03125l0 4.34375l-0.90625 0l0 -1.09375q-0.3125 0.546875 -0.9375 0.859375q-0.625 0.296875 -1.46875 0.296875q-1.171875 0 -1.875 -0.546875q-0.6875 -0.5625 -0.6875 -1.484375q0 -0.890625 0.640625 -1.4375q0.65625 -0.546875 2.0625 -0.546875l2.234375 0l0 -0.4375q0 -0.90625 -0.515625 -1.375q-0.5 -0.46875 -1.484375 -0.46875q-0.65625 0 -1.28125 0.21875q-0.609375 0.21875 -1.046875 0.609375l-0.421875 -0.71875q0.53125 -0.453125 1.28125 -0.6875q0.75 -0.25 1.5625 -0.25zm-0.328125 6.375q0.796875 0 1.375 -0.359375q0.578125 -0.359375 0.859375 -1.0625l0 -1.140625l-2.203125 0q-1.796875 0 -1.796875 1.25q0 0.609375 0.453125 0.96875q0.46875 0.34375 1.3125 0.34375zm7.629196 0.75q-0.859375 0 -1.640625 -0.234375q-0.78125 -0.25 -1.21875 -0.625l0.421875 -0.75q0.453125 0.34375 1.109375 0.5625q0.671875 0.21875 1.390625 0.21875q0.953125 0 1.40625 -0.296875q0.46875 -0.296875 0.46875 -0.84375q0 -0.390625 -0.25 -0.609375q-0.25 -0.21875 -0.640625 -0.328125q-0.390625 -0.109375 -1.03125 -0.21875q-0.84375 -0.15625 -1.375 -0.328125q-0.515625 -0.171875 -0.890625 -0.5625q-0.359375 -0.40625 -0.359375 -1.109375q0 -0.875 0.734375 -1.4375q0.734375 -0.5625 2.046875 -0.5625q0.671875 0 1.34375 0.1875q0.6875 0.171875 1.125 0.46875l-0.40625 0.75q-0.859375 -0.59375 -2.0625 -0.59375q-0.90625 0 -1.375 0.328125q-0.453125 0.3125 -0.453125 0.828125q0 0.40625 0.25 0.640625q0.265625 0.234375 0.65625 0.359375q0.390625 0.109375 1.0625 0.234375q0.84375 0.15625 1.34375 0.3125q0.515625 0.15625 0.875 0.546875q0.359375 0.390625 0.359375 1.0625q0 0.921875 -0.765625 1.46875q-0.765625 0.53125 -2.125 0.53125zm6.517418 0q-0.859375 0 -1.640625 -0.234375q-0.78125 -0.25 -1.21875 -0.625l0.421875 -0.75q0.453125 0.34375 1.109375 0.5625q0.671875 0.21875 1.390625 0.21875q0.953125 0 1.40625 -0.296875q0.46875 -0.296875 0.46875 -0.84375q0 -0.390625 -0.25 -0.609375q-0.25 -0.21875 -0.640625 -0.328125q-0.390625 -0.109375 -1.03125 -0.21875q-0.84375 -0.15625 -1.375 -0.328125q-0.515625 -0.171875 -0.890625 -0.5625q-0.359375 -0.40625 -0.359375 -1.109375q0 -0.875 0.734375 -1.4375q0.734375 -0.5625 2.046875 -0.5625q0.671875 0 1.34375 0.1875q0.6875 0.171875 1.125 0.46875l-0.40625 0.75q-0.859375 -0.59375 -2.0625 -0.59375q-0.90625 0 -1.375 0.328125q-0.453125 0.3125 -0.453125 0.828125q0 0.40625 0.25 0.640625q0.265625 0.234375 0.65625 0.359375q0.390625 0.109375 1.0625 0.234375q0.84375 0.15625 1.34375 0.3125q0.515625 0.15625 0.875 0.546875q0.359375 0.390625 0.359375 1.0625q0 0.921875 -0.765625 1.46875q-0.765625 0.53125 -2.125 0.53125zm8.908051 0.015625q-1.375 0 -2.515625 -0.609375q-1.125 -0.625 -1.765625 -1.703125q-0.625 -1.078125 -0.625 -2.4375q0 -1.34375 0.625 -2.421875q0.640625 -1.078125 1.765625 -1.6875q1.140625 -0.625 2.515625 -0.625q1.390625 0 2.5 0.609375q1.109375 0.609375 1.75 1.703125q0.640625 1.078125 0.640625 2.421875q0 1.359375 -0.640625 2.453125q-0.640625 1.078125 -1.75 1.6875q-1.109375 0.609375 -2.5 0.609375zm0 -0.875q1.109375 0 2.0 -0.5q0.890625 -0.5 1.390625 -1.390625q0.515625 -0.890625 0.515625 -1.984375q0 -1.078125 -0.515625 -1.96875q-0.5 -0.890625 -1.390625 -1.390625q-0.890625 -0.5 -2.0 -0.5q-1.109375 0 -2.015625 0.5q-0.890625 0.5 -1.40625 1.390625q-0.5 0.890625 -0.5 1.96875q0 1.09375 0.5 1.984375q0.515625 0.890625 1.40625 1.390625q0.90625 0.5 2.015625 0.5zm9.229126 -8.359375q-0.609375 0 -0.921875 0.34375q-0.3125 0.328125 -0.3125 0.96875l0 0.828125l2.15625 0l0 0.8125l-2.140625 0l0 6.203125l-0.9375 0l0 -6.203125l-1.25 0l0 -0.8125l1.25 0l0 -0.859375q0 -0.96875 0.546875 -1.515625q0.546875 -0.5625 1.5625 -0.5625q0.40625 0 0.78125 0.109375q0.375 0.109375 0.625 0.328125l-0.328125 0.703125q-0.40625 -0.34375 -1.03125 -0.34375z" fill-rule="nonzero"/><path fill="#000000" fill-opacity="0.0" d="m630.9724 83.02756l0 0c0 -15.977119 28.61853 -28.92913 63.921265 -28.92913l0 0c35.302734 0 63.921265 12.952011 63.921265 28.92913l0 0c0 15.977119 -28.61853 28.929138 -63.921265 28.929138l0 0c-35.302734 0 -63.921265 -12.952019 -63.921265 -28.929138z" fill-rule="evenodd"/><path stroke="#000000" stroke-width="1.0" stroke-linejoin="round" stroke-linecap="butt" d="m630.9724 83.02756l0 0c0 -15.977119 28.61853 -28.92913 63.921265 -28.92913l0 0c35.302734 0 63.921265 12.952011 63.921265 28.92913l0 0c0 15.977119 -28.61853 28.929138 -63.921265 28.929138l0 0c-35.302734 0 -63.921265 -12.952019 -63.921265 -28.929138z" fill-rule="evenodd"/><path fill="#000000" d="m665.89484 88.10756l-2.453125 -3.21875l-2.453125 3.21875l-1.171875 0l3.046875 -3.953125l-2.90625 -3.75l1.171875 0l2.3125 3.015625l2.328125 -3.015625l1.140625 0l-2.90625 3.75l3.078125 3.953125l-1.1875 0zm4.8360596 0.078125q-0.9375 0 -1.796875 -0.265625q-0.859375 -0.28125 -1.34375 -0.6875l0.46875 -0.828125q0.484375 0.390625 1.21875 0.640625q0.734375 0.234375 1.53125 0.234375q1.046875 0 1.546875 -0.328125q0.515625 -0.34375 0.515625 -0.9375q0 -0.421875 -0.28125 -0.65625q-0.28125 -0.25 -0.703125 -0.375q-0.421875 -0.125 -1.125 -0.25q-0.9375 -0.171875 -1.515625 -0.34375q-0.5625 -0.1875 -0.96875 -0.625q-0.40625 -0.453125 -0.40625 -1.21875q0 -0.96875 0.796875 -1.578125q0.8125 -0.625 2.25 -0.625q0.75 0 1.5 0.203125q0.75 0.1875 1.234375 0.515625l-0.453125 0.828125q-0.953125 -0.65625 -2.28125 -0.65625q-0.984375 0 -1.5 0.359375q-0.5 0.34375 -0.5 0.921875q0 0.4375 0.28125 0.703125q0.28125 0.265625 0.703125 0.390625q0.4375 0.125 1.1875 0.25q0.921875 0.171875 1.46875 0.359375q0.5625 0.171875 0.953125 0.59375q0.40625 0.421875 0.40625 1.171875q0 1.015625 -0.84375 1.609375q-0.84375 0.59375 -2.34375 0.59375zm12.135681 -10.953125l0 10.875l-1.0 0l0 -1.53125q-0.46875 0.78125 -1.234375 1.203125q-0.765625 0.40625 -1.734375 0.40625q-1.09375 0 -1.96875 -0.5q-0.875 -0.5 -1.375 -1.390625q-0.5 -0.90625 -0.5 -2.046875q0 -1.140625 0.5 -2.03125q0.5 -0.890625 1.375 -1.375q0.875 -0.5 1.96875 -0.5q0.9375 0 1.6875 0.390625q0.765625 0.390625 1.25 1.125l0 -4.625l1.03125 0zm-3.875 10.03125q0.796875 0 1.453125 -0.375q0.65625 -0.375 1.015625 -1.0625q0.375 -0.6875 0.375 -1.578125q0 -0.875 -0.375 -1.5625q-0.359375 -0.6875 -1.015625 -1.0625q-0.65625 -0.375 -1.453125 -0.375q-0.828125 0 -1.484375 0.375q-0.640625 0.375 -1.015625 1.0625q-0.375 0.6875 -0.375 1.5625q0 0.890625 0.375 1.578125q0.375 0.6875 1.015625 1.0625q0.65625 0.375 1.484375 0.375zm6.8744507 -5.078125q-0.3125 0 -0.546875 -0.234375q-0.21875 -0.234375 -0.21875 -0.578125q0 -0.328125 0.21875 -0.5625q0.234375 -0.234375 0.546875 -0.234375q0.328125 0 0.5625 0.234375q0.234375 0.234375 0.234375 0.5625q0 0.34375 -0.234375 0.578125q-0.234375 0.234375 -0.5625 0.234375zm0 6.0q-0.3125 0 -0.546875 -0.234375q-0.21875 -0.234375 -0.21875 -0.578125q0 -0.328125 0.21875 -0.5625q0.234375 -0.234375 0.546875 -0.234375q0.328125 0 0.5625 0.234375q0.234375 0.234375 0.234375 0.5625q0 0.34375 -0.234375 0.578125q-0.234375 0.234375 -0.5625 0.234375zm5.0758667 0q-0.9375 0 -1.796875 -0.265625q-0.859375 -0.28125 -1.34375 -0.6875l0.46875 -0.828125q0.484375 0.390625 1.21875 0.640625q0.734375 0.234375 1.53125 0.234375q1.046875 0 1.546875 -0.328125q0.515625 -0.34375 0.515625 -0.9375q0 -0.421875 -0.28125 -0.65625q-0.28125 -0.25 -0.703125 -0.375q-0.421875 -0.125 -1.125 -0.25q-0.9375 -0.171875 -1.515625 -0.34375q-0.5625 -0.1875 -0.96875 -0.625q-0.40625 -0.453125 -0.40625 -1.21875q0 -0.96875 0.796875 -1.578125q0.8125 -0.625 2.25 -0.625q0.75 0 1.5 0.203125q0.75 0.1875 1.234375 0.515625l-0.453125 0.828125q-0.953125 -0.65625 -2.28125 -0.65625q-0.984375 0 -1.5 0.359375q-0.5 0.34375 -0.5 0.921875q0 0.4375 0.28125 0.703125q0.28125 0.265625 0.703125 0.390625q0.4375 0.125 1.1875 0.25q0.921875 0.171875 1.46875 0.359375q0.5625 0.171875 0.953125 0.59375q0.40625 0.421875 0.40625 1.171875q0 1.015625 -0.84375 1.609375q-0.84375 0.59375 -2.34375 0.59375zm9.166931 -0.546875q-0.296875 0.265625 -0.734375 0.40625q-0.421875 0.140625 -0.890625 0.140625q-1.09375 0 -1.6875 -0.578125q-0.578125 -0.59375 -0.578125 -1.671875l0 -4.65625l-1.375 0l0 -0.875l1.375 0l0 -1.6875l1.046875 0l0 1.6875l2.34375 0l0 0.875l-2.34375 0l0 4.59375q0 0.703125 0.34375 1.0625q0.34375 0.34375 0.984375 0.34375q0.328125 0 0.625 -0.09375q0.296875 -0.109375 0.515625 -0.296875l0.375 0.75zm2.8880005 -5.734375q0.359375 -0.765625 1.078125 -1.15625q0.734375 -0.40625 1.796875 -0.40625l0 1.015625l-0.25 -0.015625q-1.203125 0 -1.90625 0.75q-0.6875 0.734375 -0.6875 2.09375l0 3.921875l-1.03125 0l0 -7.703125l1.0 0l0 1.5zm4.7598267 -1.5l1.03125 0l0 7.703125l-1.03125 0l0 -7.703125zm0.53125 -1.6875q-0.328125 0 -0.546875 -0.21875q-0.21875 -0.21875 -0.21875 -0.53125q0 -0.296875 0.21875 -0.515625q0.21875 -0.21875 0.546875 -0.21875q0.3125 0 0.53125 0.21875q0.21875 0.203125 0.21875 0.5q0 0.328125 -0.21875 0.546875q-0.21875 0.21875 -0.53125 0.21875zm7.333191 1.625q1.453125 0 2.3125 0.84375q0.859375 0.84375 0.859375 2.453125l0 4.46875l-1.046875 0l0 -4.375q0 -1.1875 -0.609375 -1.8125q-0.59375 -0.640625 -1.703125 -0.640625q-1.25 0 -1.984375 0.75q-0.71875 0.734375 -0.71875 2.03125l0 4.046875l-1.03125 0l0 -7.703125l1.0 0l0 1.421875q0.421875 -0.703125 1.171875 -1.09375q0.75 -0.390625 1.75 -0.390625zm13.170349 0.0625l0 6.765625q0 1.96875 -0.96875 2.90625q-0.953125 0.953125 -2.890625 0.953125q-1.0625 0 -2.03125 -0.328125q-0.953125 -0.3125 -1.5625 -0.859375l0.53125 -0.796875q0.5625 0.5 1.359375 0.78125q0.796875 0.28125 1.671875 0.28125q1.46875 0 2.15625 -0.6875q0.6875 -0.6875 0.6875 -2.125l0 -0.96875q-0.484375 0.71875 -1.265625 1.109375q-0.78125 0.375 -1.734375 0.375q-1.09375 0 -1.984375 -0.46875q-0.875 -0.484375 -1.390625 -1.328125q-0.5 -0.859375 -0.5 -1.953125q0 -1.078125 0.5 -1.921875q0.515625 -0.859375 1.390625 -1.328125q0.875 -0.46875 1.984375 -0.46875q0.984375 0 1.765625 0.40625q0.796875 0.390625 1.28125 1.125l0 -1.46875l1.0 0zm-3.953125 6.484375q0.84375 0 1.515625 -0.359375q0.671875 -0.359375 1.046875 -1.0q0.375 -0.640625 0.375 -1.46875q0 -0.8125 -0.375 -1.453125q-0.375 -0.640625 -1.046875 -1.0q-0.65625 -0.359375 -1.515625 -0.359375q-0.828125 0 -1.5 0.359375q-0.65625 0.34375 -1.03125 1.0q-0.375 0.640625 -0.375 1.453125q0 0.828125 0.375 1.46875q0.375 0.640625 1.03125 1.0q0.671875 0.359375 1.5 0.359375z" fill-rule="nonzero"/><path fill="#000000" fill-opacity="0.0" d="m649.6945 103.48354l-86.51965 47.244102" fill-rule="evenodd"/><path stroke="#000000" stroke-width="1.0" stroke-linejoin="round" stroke-linecap="butt" stroke-dasharray="4.0,3.0,1.0,3.0" d="m644.4285 106.35908l-81.25366 44.36857" fill-rule="evenodd"/><path fill="#000000" stroke="#000000" stroke-width="1.0" stroke-linecap="butt" d="m645.2201 107.80876l3.1914062 -3.6245956l-4.774597 0.7252197z" fill-rule="evenodd"/><path fill="#000000" fill-opacity="0.0" d="m630.9724 83.02756l-67.810974 36.09449" fill-rule="evenodd"/><path stroke="#000000" stroke-width="1.0" stroke-linejoin="round" stroke-linecap="butt" stroke-dasharray="4.0,3.0,1.0,3.0" d="m625.676 85.84674l-62.514587 33.275307" fill-rule="evenodd"/><path fill="#000000" stroke="#000000" stroke-width="1.0" stroke-linecap="butt" d="m626.4521 87.304794l3.2298584 -3.5903397l-4.7820435 0.6742401z" fill-rule="evenodd"/><path fill="#000000" fill-opacity="0.0" d="m649.6945 62.57157l-86.55115 -35.59055" fill-rule="evenodd"/><path stroke="#000000" stroke-width="1.0" stroke-linejoin="round" stroke-linecap="butt" stroke-dasharray="4.0,3.0,1.0,3.0" d="m644.1454 60.289715l-81.002014 -33.308693" fill-rule="evenodd"/><path fill="#000000" stroke="#000000" stroke-width="1.0" stroke-linecap="butt" d="m643.5172 61.817337l4.8253174 0.19826126l-3.5689697 -3.253502z" fill-rule="evenodd"/><path fill="#000000" fill-opacity="0.0" d="m608.8228 18.444881l98.99213 0l0 35.653545l-98.99213 0z" fill-rule="evenodd"/><path fill="#000000" d="m636.1561 30.354256l0 9.890625l-0.90625 0l0 -1.390625q-0.421875 0.703125 -1.125 1.078125q-0.703125 0.375 -1.578125 0.375q-0.984375 0 -1.796875 -0.453125q-0.796875 -0.453125 -1.25 -1.265625q-0.453125 -0.8125 -0.453125 -1.84375q0 -1.046875 0.453125 -1.859375q0.453125 -0.8125 1.25 -1.25q0.8125 -0.453125 1.796875 -0.453125q0.84375 0 1.53125 0.359375q0.6875 0.34375 1.125 1.03125l0 -4.21875l0.953125 0zm-3.53125 9.125q0.734375 0 1.328125 -0.34375q0.59375 -0.34375 0.921875 -0.96875q0.34375 -0.625 0.34375 -1.421875q0 -0.8125 -0.34375 -1.4375q-0.328125 -0.625 -0.921875 -0.953125q-0.59375 -0.34375 -1.328125 -0.34375q-0.75 0 -1.34375 0.34375q-0.59375 0.328125 -0.9375 0.953125q-0.328125 0.625 -0.328125 1.4375q0 0.796875 0.328125 1.421875q0.34375 0.625 0.9375 0.96875q0.59375 0.34375 1.34375 0.34375zm8.614563 -6.296875q1.375 0 2.109375 0.6875q0.734375 0.6875 0.734375 2.03125l0 4.34375l-0.90625 0l0 -1.09375q-0.3125 0.546875 -0.9375 0.859375q-0.625 0.296875 -1.46875 0.296875q-1.171875 0 -1.875 -0.546875q-0.6875 -0.5625 -0.6875 -1.484375q0 -0.890625 0.640625 -1.4375q0.65625 -0.546875 2.0625 -0.546875l2.234375 0l0 -0.4375q0 -0.90625 -0.515625 -1.375q-0.5 -0.46875 -1.484375 -0.46875q-0.65625 0 -1.28125 0.21875q-0.609375 0.21875 -1.046875 0.609375l-0.421875 -0.71875q0.53125 -0.453125 1.28125 -0.6875q0.75 -0.25 1.5625 -0.25zm-0.328125 6.375q0.796875 0 1.375 -0.359375q0.578125 -0.359375 0.859375 -1.0625l0 -1.140625l-2.203125 0q-1.796875 0 -1.796875 1.25q0 0.609375 0.453125 0.96875q0.46875 0.34375 1.3125 0.34375zm9.441711 0.265625q-0.265625 0.234375 -0.671875 0.359375q-0.390625 0.125 -0.8125 0.125q-0.984375 0 -1.515625 -0.53125q-0.53125 -0.53125 -0.53125 -1.5l0 -4.234375l-1.25 0l0 -0.8125l1.25 0l0 -1.53125l0.9375 0l0 1.53125l2.140625 0l0 0.8125l-2.140625 0l0 4.171875q0 0.625 0.3125 0.953125q0.3125 0.328125 0.90625 0.328125q0.296875 0 0.5625 -0.09375q0.28125 -0.09375 0.46875 -0.265625l0.34375 0.6875zm4.161194 -6.640625q1.375 0 2.109375 0.6875q0.734375 0.6875 0.734375 2.03125l0 4.34375l-0.90625 0l0 -1.09375q-0.3125 0.546875 -0.9375 0.859375q-0.625 0.296875 -1.46875 0.296875q-1.171875 0 -1.875 -0.546875q-0.6875 -0.5625 -0.6875 -1.484375q0 -0.890625 0.640625 -1.4375q0.65625 -0.546875 2.0625 -0.546875l2.234375 0l0 -0.4375q0 -0.90625 -0.515625 -1.375q-0.5 -0.46875 -1.484375 -0.46875q-0.65625 0 -1.28125 0.21875q-0.609375 0.21875 -1.046875 0.609375l-0.421875 -0.71875q0.53125 -0.453125 1.28125 -0.6875q0.75 -0.25 1.5625 -0.25zm-0.328125 6.375q0.796875 0 1.375 -0.359375q0.578125 -0.359375 0.859375 -1.0625l0 -1.140625l-2.203125 0q-1.796875 0 -1.796875 1.25q0 0.609375 0.453125 0.96875q0.46875 0.34375 1.3125 0.34375zm9.44165 0.265625q-0.265625 0.234375 -0.671875 0.359375q-0.390625 0.125 -0.8125 0.125q-0.984375 0 -1.515625 -0.53125q-0.53125 -0.53125 -0.53125 -1.5l0 -4.234375l-1.25 0l0 -0.8125l1.25 0l0 -1.53125l0.9375 0l0 1.53125l2.140625 0l0 0.8125l-2.140625 0l0 4.171875q0 0.625 0.3125 0.953125q0.3125 0.328125 0.90625 0.328125q0.296875 0 0.5625 -0.09375q0.28125 -0.09375 0.46875 -0.265625l0.34375 0.6875zm7.465393 -6.59375l-3.5 7.859375q-0.421875 0.984375 -0.984375 1.390625q-0.5625 0.421875 -1.34375 0.421875q-0.515625 0 -0.953125 -0.171875q-0.4375 -0.15625 -0.75 -0.46875l0.4375 -0.703125q0.53125 0.53125 1.28125 0.53125q0.46875 0 0.8125 -0.265625q0.34375 -0.265625 0.640625 -0.90625l0.296875 -0.6875l-3.125 -7.0l0.984375 0l2.640625 5.96875l2.640625 -5.96875l0.921875 0zm4.958191 -0.046875q0.984375 0 1.78125 0.453125q0.796875 0.4375 1.25 1.25q0.453125 0.8125 0.453125 1.859375q0 1.046875 -0.453125 1.859375q-0.453125 0.8125 -1.25 1.265625q-0.78125 0.4375 -1.78125 0.4375q-0.859375 0 -1.546875 -0.34375q-0.6875 -0.359375 -1.125 -1.03125l0 3.890625l-0.953125 0l0 -9.59375l0.90625 0l0 1.390625q0.4375 -0.6875 1.125 -1.0625q0.703125 -0.375 1.59375 -0.375zm-0.078125 6.296875q0.734375 0 1.328125 -0.34375q0.609375 -0.34375 0.953125 -0.96875q0.34375 -0.625 0.34375 -1.421875q0 -0.8125 -0.34375 -1.421875q-0.34375 -0.625 -0.953125 -0.96875q-0.59375 -0.34375 -1.328125 -0.34375q-0.734375 0 -1.328125 0.34375q-0.59375 0.34375 -0.9375 0.96875q-0.34375 0.609375 -0.34375 1.421875q0 0.796875 0.34375 1.421875q0.34375 0.625 0.9375 0.96875q0.59375 0.34375 1.328125 0.34375zm11.598938 -2.453125l-5.859375 0q0.078125 1.09375 0.828125 1.78125q0.765625 0.671875 1.921875 0.671875q0.65625 0 1.203125 -0.234375q0.546875 -0.234375 0.953125 -0.6875l0.53125 0.609375q-0.46875 0.5625 -1.171875 0.859375q-0.703125 0.28125 -1.53125 0.28125q-1.078125 0 -1.921875 -0.453125q-0.828125 -0.46875 -1.296875 -1.28125q-0.46875 -0.8125 -0.46875 -1.828125q0 -1.03125 0.4375 -1.84375q0.453125 -0.8125 1.234375 -1.265625q0.78125 -0.453125 1.75 -0.453125q0.984375 0 1.75 0.453125q0.78125 0.453125 1.21875 1.265625q0.4375 0.796875 0.4375 1.84375l-0.015625 0.28125zm-3.390625 -3.03125q-1.0 0 -1.6875 0.65625q-0.6875 0.640625 -0.78125 1.671875l4.96875 0q-0.09375 -1.03125 -0.78125 -1.671875q-0.6875 -0.65625 -1.71875 -0.65625z" fill-rule="nonzero"/></g></svg>